<?xml version="1.0" encoding="UTF-8"?>
<!DOCTYPE svg PUBLIC "-//W3C//DTD SVG 1.1//EN" "http://www.w3.org/Graphics/SVG/1.1/DTD/svg11.dtd">
<svg xmlns="http://www.w3.org/2000/svg" version="1.1" width="512px" height="512px" style="shape-rendering:geometricPrecision; text-rendering:geometricPrecision; image-rendering:optimizeQuality; fill-rule:evenodd; clip-rule:evenodd" xmlns:xlink="http://www.w3.org/1999/xlink">
<g><path style="opacity:0.129" fill="#004800" d="M 271.5,57.5 C 270.761,57.631 270.094,57.4643 269.5,57C 270.437,56.3083 271.103,56.475 271.5,57.5 Z"/></g>
<g><path style="opacity:0.129" fill="#474800" d="M 223.5,57.5 C 224.901,57.9709 226.234,58.6376 227.5,59.5C 225.167,60.9415 223.834,60.2748 223.5,57.5 Z"/></g>
<g><path style="opacity:0.129" fill="#004800" d="M 271.5,57.5 C 272.167,57.5 272.5,57.8333 272.5,58.5C 272.167,58.1667 271.833,57.8333 271.5,57.5 Z"/></g>
<g><path style="opacity:0.129" fill="#474800" d="M 274.5,57.5 C 275.833,58.1667 275.833,58.1667 274.5,57.5 Z"/></g>
<g><path style="opacity:1" fill="#a4b39e" d="M 277.5,60.5 C 278.251,59.4265 279.251,59.2599 280.5,60C 279.552,60.4828 278.552,60.6495 277.5,60.5 Z"/></g>
<g><path style="opacity:1" fill="#938a84" d="M 272.5,58.5 C 273.167,58.5 273.833,58.5 274.5,58.5C 275.167,59.5 275.833,60.5 276.5,61.5C 275.508,61.3284 274.842,61.6618 274.5,62.5C 262.477,61.234 250.477,61.234 238.5,62.5C 238.5,61.8333 238.167,61.5 237.5,61.5C 245.81,59.645 254.31,59.3117 263,60.5C 264.167,60.3333 265.333,60.1667 266.5,60C 265.396,58.8687 265.729,58.0354 267.5,57.5C 268.711,58.2739 268.711,59.1072 267.5,60C 269.5,60.6667 271.5,60.6667 273.5,60C 272.944,59.6174 272.611,59.1174 272.5,58.5 Z"/></g>
<g><path style="opacity:0.129" fill="#470000" d="M 269.5,58.5 C 270.833,59.1667 270.833,59.1667 269.5,58.5 Z"/></g>
<g><path style="opacity:0.129" fill="#474800" d="M 283.5,61.5 C 283.897,60.475 284.563,60.3083 285.5,61C 284.906,61.4643 284.239,61.631 283.5,61.5 Z"/></g>
<g><path style="opacity:0.129" fill="#004800" d="M 289.5,62.5 C 289.897,61.475 290.563,61.3083 291.5,62C 290.906,62.4643 290.239,62.631 289.5,62.5 Z"/></g>
<g><path style="opacity:1" fill="#929490" d="M 276.5,62.5 C 276.5,62.1667 276.5,61.8333 276.5,61.5C 280.824,61.9272 285.158,62.2605 289.5,62.5C 289.5,62.8333 289.5,63.1667 289.5,63.5C 288.833,63.5 288.5,63.8333 288.5,64.5C 284.5,63.8333 280.5,63.1667 276.5,62.5 Z"/></g>
<g><path style="opacity:1" fill="#a3a1a0" d="M 228.5,63.5 C 223.833,64.1667 219.167,64.8333 214.5,65.5C 218.054,63.924 221.887,62.924 226,62.5C 227.07,62.528 227.903,62.8614 228.5,63.5 Z"/></g>
<g><path style="opacity:1" fill="#374649" d="M 237.5,61.5 C 238.167,61.5 238.5,61.8333 238.5,62.5C 250.477,61.234 262.477,61.234 274.5,62.5C 275.167,62.5 275.833,62.5 276.5,62.5C 280.5,63.1667 284.5,63.8333 288.5,64.5C 289.167,64.5 289.5,64.1667 289.5,63.5C 289.833,63.5 290.167,63.5 290.5,63.5C 293.489,66.3294 296.822,66.9961 300.5,65.5C 301.5,66.1667 302.5,66.8333 303.5,67.5C 306.341,68.6693 309.341,69.6693 312.5,70.5C 313.391,69.8902 314.391,69.5569 315.5,69.5C 316.848,70.1859 318.015,71.1859 319,72.5C 320.503,72.1654 321.836,72.1654 323,72.5C 323.317,74.3008 323.984,74.6341 325,73.5C 327.766,74.7318 330.599,75.7318 333.5,76.5C 337.035,78.4872 340.035,80.4872 342.5,82.5C 347.85,85.528 353.184,88.528 358.5,91.5C 358.833,91.5 359.167,91.5 359.5,91.5C 359.409,93.6977 360.075,94.0311 361.5,92.5C 362.172,93.2674 363.005,93.9341 364,94.5C 364.689,93.6433 365.522,92.9767 366.5,92.5C 367.096,93.7161 367.263,95.0494 367,96.5C 368.113,97.305 369.279,97.9717 370.5,98.5C 370.973,99.9063 371.973,100.573 373.5,100.5C 374.339,102.384 375.672,103.717 377.5,104.5C 376.167,104.833 376.167,105.167 377.5,105.5C 378.262,107.262 379.596,108.262 381.5,108.5C 383.749,109.08 385.415,110.413 386.5,112.5C 390.887,117.854 395.887,122.52 401.5,126.5C 402.167,126.833 402.833,127.167 403.5,127.5C 404.694,131.363 407.027,134.363 410.5,136.5C 410.5,137.167 410.833,137.5 411.5,137.5C 415.836,143.508 420.169,149.508 424.5,155.5C 425.625,157.129 426.959,158.629 428.5,160C 428.167,160.333 427.833,160.667 427.5,161C 429.679,161.442 430.345,162.442 429.5,164C 432.419,169.286 435.419,173.953 438.5,178C 438.167,178.333 437.833,178.667 437.5,179C 438.967,180.098 439.801,181.598 440,183.5C 441.666,182.66 441.833,183.16 440.5,185C 441.381,185.708 442.047,186.542 442.5,187.5C 442.062,187.435 441.728,187.601 441.5,188C 443.4,192.125 445.066,196.292 446.5,200.5C 447.278,201.156 447.944,201.989 448.5,203C 449.499,206.136 450.165,208.969 450.5,211.5C 450.742,215.479 451.742,219.146 453.5,222.5C 455.349,226.294 455.682,230.294 454.5,234.5C 455.489,235.468 456.156,236.635 456.5,238C 456.057,239.825 455.723,241.658 455.5,243.5C 455.5,255.167 455.5,266.833 455.5,278.5C 455.508,281.897 454.841,285.064 453.5,288C 454.86,289.938 454.527,291.604 452.5,293C 453.059,293.725 453.392,294.558 453.5,295.5C 452.574,297.652 451.574,299.819 450.5,302C 451.578,305.871 450.578,309.204 447.5,312C 448.661,314.721 447.994,317.054 445.5,319C 446.634,320.016 446.301,320.683 444.5,321C 445.089,322.873 444.422,324.54 442.5,326C 442.833,326.333 443.167,326.667 443.5,327C 438.953,336.722 433.62,345.889 427.5,354.5C 426.167,354.833 426.167,355.167 427.5,355.5C 427.737,356.791 427.404,357.791 426.5,358.5C 426.167,357.167 425.833,357.167 425.5,358.5C 424.883,358.389 424.383,358.056 424,357.5C 422.601,360.629 420.935,363.629 419,366.5C 411.731,371.736 405.231,377.736 399.5,384.5C 398.448,384.351 397.448,384.517 396.5,385C 389.27,391.737 381.937,398.237 374.5,404.5C 369.291,409.87 363.624,413.87 357.5,416.5C 353.446,413.957 349.779,410.791 346.5,407C 372.147,394.028 392.814,375.361 408.5,351C 408.272,350.601 407.938,350.435 407.5,350.5C 408.44,348.388 409.606,346.388 411,344.5C 411.64,342.735 411.473,341.068 410.5,339.5C 414.114,334.671 416.78,329.338 418.5,323.5C 419.499,320.838 420.499,318.172 421.5,315.5C 421.833,315.5 422.167,315.5 422.5,315.5C 423.987,317.605 425.987,319.272 428.5,320.5C 422.81,329.881 417.643,339.547 413,349.5C 409.622,354.422 406.122,359.255 402.5,364C 403.354,365.022 404.354,365.855 405.5,366.5C 441.748,318.019 450.914,264.686 433,206.5C 431.962,202.532 430.462,198.865 428.5,195.5C 421.06,173.616 410.226,153.616 396,135.5C 391.333,129.5 386.667,123.5 382,117.5C 381.333,118.167 380.667,118.833 380,119.5C 371.667,109.833 362.667,100.833 353,92.5C 350.333,95.8333 347.667,99.1667 345,102.5C 298.556,77.7403 250.056,72.907 199.5,88C 185.969,92.7655 173.302,99.0988 161.5,107C 161.639,108.301 162.305,109.134 163.5,109.5C 164.684,110.688 164.684,111.855 163.5,113C 143.174,125.322 126.008,141.156 112,160.5C 109.6,158.585 107.1,156.919 104.5,155.5C 103.596,154.791 103.263,153.791 103.5,152.5C 99.8979,152.322 99.8979,151.322 103.5,149.5C 102.833,148.833 102.167,148.167 101.5,147.5C 103.078,146.702 104.744,146.202 106.5,146C 104.111,143.393 101.445,141.226 98.5,139.5C 103.967,133.862 109.301,128.029 114.5,122C 117.249,119.577 120.249,117.577 123.5,116C 123.167,115.667 122.833,115.333 122.5,115C 123.823,114.184 124.489,113.017 124.5,111.5C 124.833,111.5 125.167,111.5 125.5,111.5C 131.14,107.853 136.473,103.853 141.5,99.5C 142.167,99.5 142.5,99.1667 142.5,98.5C 147.343,96.5824 151.677,93.9157 155.5,90.5C 158.691,88.7413 161.691,86.7413 164.5,84.5C 169.478,83.0684 174.144,81.0684 178.5,78.5C 181.235,75.7989 184.569,74.1322 188.5,73.5C 188.833,74.8333 189.167,74.8333 189.5,73.5C 195.225,72.0361 200.892,70.3694 206.5,68.5C 207.833,68.1667 207.833,67.8333 206.5,67.5C 208.308,66.6059 210.142,65.6059 212,64.5C 212.945,64.9054 213.612,65.572 214,66.5C 214.399,66.2716 214.565,65.9382 214.5,65.5C 219.167,64.8333 223.833,64.1667 228.5,63.5C 231.248,61.9562 234.248,61.2895 237.5,61.5 Z"/></g>
<g><path style="opacity:1" fill="#888786" d="M 290.5,63.5 C 294.037,63.3107 297.37,63.9774 300.5,65.5C 296.822,66.9961 293.489,66.3294 290.5,63.5 Z"/></g>
<g><path style="opacity:1" fill="#858d88" d="M 312.5,70.5 C 309.341,69.6693 306.341,68.6693 303.5,67.5C 305.664,66.7215 307.83,66.3882 310,66.5C 311.085,67.7356 311.918,69.0689 312.5,70.5 Z"/></g>
<g><path style="opacity:0.129" fill="#470000" d="M 315.5,69.5 C 315.897,68.475 316.563,68.3083 317.5,69C 316.906,69.4643 316.239,69.631 315.5,69.5 Z"/></g>
<g><path style="opacity:1" fill="#8e8f8d" d="M 206.5,67.5 C 206.5,67.8333 206.5,68.1667 206.5,68.5C 200.892,70.3694 195.225,72.0361 189.5,73.5C 189.167,73.5 188.833,73.5 188.5,73.5C 194.233,70.9222 200.233,68.9222 206.5,67.5 Z"/></g>
<g><path style="opacity:0.129" fill="#470000" d="M 348.5,69.5 C 349.525,69.8966 349.692,70.5632 349,71.5C 348.536,70.9056 348.369,70.2389 348.5,69.5 Z"/></g>
<g><path style="opacity:0.129" fill="#470000" d="M 333.5,75.5 C 334.833,76.1667 334.833,76.1667 333.5,75.5 Z"/></g>
<g><path style="opacity:0.129" fill="#470000" d="M 336.5,75.5 C 337.833,76.1667 337.833,76.1667 336.5,75.5 Z"/></g>
<g><path style="opacity:0.129" fill="#662b27" d="M 343.5,80.5 C 340.85,80.0424 340.35,79.0424 342,77.5C 343.039,78.2438 343.539,79.2438 343.5,80.5 Z"/></g>
<g><path style="opacity:1" fill="#90918b" d="M 178.5,78.5 C 174.144,81.0684 169.478,83.0684 164.5,84.5C 168.848,81.0725 173.514,79.0725 178.5,78.5 Z"/></g>
<g><path style="opacity:1" fill="#f0f3f3" d="M 428.5,195.5 C 423.69,187.99 418.69,179.99 413.5,171.5C 414.778,169.456 414.612,167.456 413,165.5C 409.301,160.973 405.468,156.639 401.5,152.5C 401.426,150.589 400.426,149.422 398.5,149C 398.833,148.667 399.167,148.333 399.5,148C 391.959,139.963 384.626,131.796 377.5,123.5C 377.649,122.448 377.483,121.448 377,120.5C 372.199,116.701 367.699,112.534 363.5,108C 362.5,107.333 361.5,107.333 360.5,108C 358.963,109.707 357.296,111.207 355.5,112.5C 332.998,98.7182 308.665,89.5515 282.5,85C 239.84,79.0853 200.174,87.252 163.5,109.5C 162.305,109.134 161.639,108.301 161.5,107C 173.302,99.0988 185.969,92.7655 199.5,88C 250.056,72.907 298.556,77.7403 345,102.5C 347.667,99.1667 350.333,95.8333 353,92.5C 362.667,100.833 371.667,109.833 380,119.5C 380.667,118.833 381.333,118.167 382,117.5C 386.667,123.5 391.333,129.5 396,135.5C 410.226,153.616 421.06,173.616 428.5,195.5 Z"/></g>
<g><path style="opacity:1" fill="#8b8c80" d="M 343.5,80.5 C 344.397,81.5981 345.23,81.5981 346,80.5C 347.487,81.2529 347.654,82.0862 346.5,83C 348.542,85.2131 350.875,85.8798 353.5,85C 353.167,85.3333 352.833,85.6667 352.5,86C 354.763,87.617 356.763,89.4503 358.5,91.5C 353.184,88.528 347.85,85.528 342.5,82.5C 342.833,81.8333 343.167,81.1667 343.5,80.5 Z"/></g>
<g><path style="opacity:1" fill="#aaaaa8" d="M 355.5,112.5 C 355.414,113.496 355.748,114.329 356.5,115C 361.833,119 367.167,123 372.5,127C 374.225,126.251 375.892,125.085 377.5,123.5C 384.626,131.796 391.959,139.963 399.5,148C 399.167,148.333 398.833,148.667 398.5,149C 400.426,149.422 401.426,150.589 401.5,152.5C 400.504,152.414 399.671,152.748 399,153.5C 398.163,155.844 396.829,157.844 395,159.5C 347.536,102.418 287.369,81.4175 214.5,96.5C 204.805,98.8427 195.472,102.176 186.5,106.5C 156.875,119.784 131.875,139.118 111.5,164.5C 93.0749,188.367 82.0749,215.367 78.5,245.5C 78.3335,256.838 78.5001,268.172 79,279.5C 81.9286,293.116 85.7619,306.45 90.5,319.5C 90.631,320.239 90.4643,320.906 90,321.5C 89.3333,320.167 88.6667,320.167 88,321.5C 87.3333,323.167 87.3333,324.833 88,326.5C 90.8315,334.172 94.6648,341.172 99.5,347.5C 101.356,356.982 99.1896,358.316 93,351.5C 93,349.5 93,347.5 93,345.5C 66.15,296.104 62.9833,245.271 83.5,193C 85.3126,193.046 86.9793,192.88 88.5,192.5C 92.7321,183.451 97.5654,174.784 103,166.5C 104.319,164.513 106.152,163.346 108.5,163C 106.833,161.333 105.167,159.667 103.5,158C 104.252,157.329 104.586,156.496 104.5,155.5C 107.1,156.919 109.6,158.585 112,160.5C 126.008,141.156 143.174,125.322 163.5,113C 164.684,111.855 164.684,110.688 163.5,109.5C 200.174,87.252 239.84,79.0853 282.5,85C 308.665,89.5515 332.998,98.7182 355.5,112.5 Z"/></g>
<g><path style="opacity:1" fill="#dbdad9" d="M 361.5,92.5 C 360.075,94.0311 359.409,93.6977 359.5,91.5C 360.15,91.1961 360.817,90.8627 361.5,90.5C 362.773,91.2565 362.773,91.9232 361.5,92.5 Z"/></g>
<g><path style="opacity:1" fill="#8b8d8d" d="M 155.5,90.5 C 151.677,93.9157 147.343,96.5824 142.5,98.5C 146.044,93.9228 150.377,91.2561 155.5,90.5 Z"/></g>
<g><path style="opacity:0.129" fill="#470000" d="M 370.5,96.5 C 369.833,95.1667 369.833,95.1667 370.5,96.5 Z"/></g>
<g><path style="opacity:0.129" fill="#474800" d="M 140.5,96.5 C 141.833,97.1667 141.833,97.1667 140.5,96.5 Z"/></g>
<g><path style="opacity:1" fill="#3f5053" d="M 401.5,152.5 C 405.468,156.639 409.301,160.973 413,165.5C 414.612,167.456 414.778,169.456 413.5,171.5C 411.5,172.833 409.833,174.5 408.5,176.5C 405.477,173.474 402.81,170.141 400.5,166.5C 395.843,171.325 391.343,176.325 387,181.5C 384.894,184.118 382.394,186.118 379.5,187.5C 344.004,186.502 308.337,186.168 272.5,186.5C 270.5,185.833 268.5,185.167 266.5,184.5C 267.552,184.649 268.552,184.483 269.5,184C 268.058,180.732 266.058,177.899 263.5,175.5C 265.5,175.5 267.5,175.5 269.5,175.5C 269.5,174.167 269.5,172.833 269.5,171.5C 267.097,171.552 264.764,171.219 262.5,170.5C 260.5,170.5 258.5,170.5 256.5,170.5C 256.5,154.5 256.5,138.5 256.5,122.5C 256.082,121.778 255.416,121.278 254.5,121C 255.102,118.964 256.102,117.13 257.5,115.5C 256.167,115.167 254.833,114.833 253.5,114.5C 255.637,113.92 257.47,112.92 259,111.5C 261.484,106.885 261.65,102.385 259.5,98C 257.437,97.7932 255.27,97.9599 253,98.5C 251.5,98 250,97.5 248.5,97C 249.517,95.9505 249.684,94.7839 249,93.5C 246.328,93.6759 243.495,94.3425 240.5,95.5C 240.709,96.086 241.043,96.586 241.5,97C 238.443,97.2565 235.443,97.7565 232.5,98.5C 231.176,96.6816 229.343,95.6816 227,95.5C 224,96.5 221,97.5 218,98.5C 216.319,98.3917 215.152,97.7251 214.5,96.5C 287.369,81.4175 347.536,102.418 395,159.5C 396.829,157.844 398.163,155.844 399,153.5C 399.671,152.748 400.504,152.414 401.5,152.5 Z"/></g>
<g><path style="opacity:1" fill="#d3d2d2" d="M 370.5,96.5 C 372.933,96.7856 372.933,97.4523 370.5,98.5C 370.5,97.8333 370.5,97.1667 370.5,96.5 Z"/></g>
<g><path style="opacity:0.129" fill="#470000" d="M 373.5,100.5 C 373.897,99.475 374.563,99.3083 375.5,100C 374.906,100.464 374.239,100.631 373.5,100.5 Z"/></g>
<g><path style="opacity:1" fill="#8b8c8a" d="M 140.5,97.5 C 140.833,98.1667 141.167,98.8333 141.5,99.5C 136.473,103.853 131.14,107.853 125.5,111.5C 124.89,110.609 124.557,109.609 124.5,108.5C 125.5,108.167 126.167,107.5 126.5,106.5C 128.013,105.691 129.68,105.524 131.5,106C 135.027,103.638 138.027,100.804 140.5,97.5 Z"/></g>
<g><path style="opacity:0.129" fill="#491001" d="M 126.5,106.5 C 126.167,107.5 125.5,108.167 124.5,108.5C 123.942,107.21 122.942,106.377 121.5,106C 122.313,104.115 123.647,103.449 125.5,104C 124.117,105.461 124.451,106.294 126.5,106.5 Z"/></g>
<g><path style="opacity:1" fill="#405054" d="M 256.5,122.5 C 256.167,122.5 255.833,122.5 255.5,122.5C 254.504,138.658 254.17,154.991 254.5,171.5C 249.833,171.5 245.167,171.5 240.5,171.5C 240.5,172.833 240.5,174.167 240.5,175.5C 242.833,175.5 245.167,175.5 247.5,175.5C 245.73,178.196 244.064,181.029 242.5,184C 242.728,184.399 243.062,184.565 243.5,184.5C 241.863,184.295 240.196,184.795 238.5,186C 221.167,186.667 203.833,186.667 186.5,186C 184.004,184.334 181.671,182.5 179.5,180.5C 171.221,173.89 163.555,166.556 156.5,158.5C 166.024,148.809 176.024,139.642 186.5,131C 188.607,129.736 189.607,127.903 189.5,125.5C 192.175,123.624 191.842,122.124 188.5,121C 188.776,118.391 188.776,115.724 188.5,113C 193.369,109.392 198.035,109.226 202.5,112.5C 203.736,111.754 205.07,111.421 206.5,111.5C 206.66,109.801 206.494,108.134 206,106.5C 205.667,106.833 205.333,107.167 205,107.5C 204.902,105.381 204.069,103.714 202.5,102.5C 197.655,104.055 192.655,105.722 187.5,107.5C 186.893,107.376 186.56,107.043 186.5,106.5C 195.472,102.176 204.805,98.8427 214.5,96.5C 215.152,97.7251 216.319,98.3917 218,98.5C 221,97.5 224,96.5 227,95.5C 229.343,95.6816 231.176,96.6816 232.5,98.5C 235.443,97.7565 238.443,97.2565 241.5,97C 241.043,96.586 240.709,96.086 240.5,95.5C 243.495,94.3425 246.328,93.6759 249,93.5C 249.684,94.7839 249.517,95.9505 248.5,97C 250,97.5 251.5,98 253,98.5C 255.27,97.9599 257.437,97.7932 259.5,98C 261.65,102.385 261.484,106.885 259,111.5C 257.47,112.92 255.637,113.92 253.5,114.5C 254.833,114.833 256.167,115.167 257.5,115.5C 256.102,117.13 255.102,118.964 254.5,121C 255.416,121.278 256.082,121.778 256.5,122.5 Z"/></g>
<g><path style="opacity:1" fill="#adaaa8" d="M 381.5,108.5 C 379.596,108.262 378.262,107.262 377.5,105.5C 377.5,105.167 377.5,104.833 377.5,104.5C 380.871,103.195 382.204,104.529 381.5,108.5 Z"/></g>
<g><path style="opacity:1" fill="#334245" d="M 377.5,123.5 C 375.892,125.085 374.225,126.251 372.5,127C 367.167,123 361.833,119 356.5,115C 355.748,114.329 355.414,113.496 355.5,112.5C 357.296,111.207 358.963,109.707 360.5,108C 361.5,107.333 362.5,107.333 363.5,108C 367.699,112.534 372.199,116.701 377,120.5C 377.483,121.448 377.649,122.448 377.5,123.5 Z"/></g>
<g><path style="opacity:0.129" fill="#474800" d="M 123.5,111.5 C 122.833,110.167 122.833,110.167 123.5,111.5 Z"/></g>
<g><path style="opacity:1" fill="#dad9d7" d="M 389.5,112.5 C 390.833,113.167 390.833,113.167 389.5,112.5 Z"/></g>
<g><path style="opacity:1" fill="#949796" d="M 386.5,112.5 C 387.609,112.557 388.609,112.89 389.5,113.5C 392.211,117.212 395.544,120.212 399.5,122.5C 400.6,123.605 401.267,124.938 401.5,126.5C 395.887,122.52 390.887,117.854 386.5,112.5 Z"/></g>
<g><path style="opacity:1" fill="#747c77" d="M 123.5,111.5 C 123.833,111.5 124.167,111.5 124.5,111.5C 124.489,113.017 123.823,114.184 122.5,115C 122.833,115.333 123.167,115.667 123.5,116C 120.249,117.577 117.249,119.577 114.5,122C 109.301,128.029 103.967,133.862 98.5,139.5C 98.5,139.167 98.5,138.833 98.5,138.5C 102.121,133.707 105.954,129.04 110,124.5C 115.003,120.664 119.503,116.33 123.5,111.5 Z"/></g>
<g><path style="opacity:0.129" fill="#474800" d="M 399.5,121.5 C 400.833,122.167 400.833,122.167 399.5,121.5 Z"/></g>
<g><path style="opacity:0.129" fill="#465328" d="M 405.5,128.5 C 404.833,128.5 404.5,128.167 404.5,127.5C 405.251,126.427 406.251,126.26 407.5,127C 406.956,127.717 406.289,128.217 405.5,128.5 Z"/></g>
<g><path style="opacity:1" fill="#919088" d="M 403.5,127.5 C 403.833,127.5 404.167,127.5 404.5,127.5C 404.5,128.167 404.833,128.5 405.5,128.5C 406.263,129.268 407.263,129.768 408.5,130C 408.043,130.414 407.709,130.914 407.5,131.5C 408.648,133.149 409.981,134.649 411.5,136C 411.272,136.399 410.938,136.565 410.5,136.5C 407.027,134.363 404.694,131.363 403.5,127.5 Z"/></g>
<g><path style="opacity:1" fill="#e5e8e9" d="M 139.5,114.5 C 140.289,114.783 140.956,115.283 141.5,116C 130.682,125.984 120.015,136.151 109.5,146.5C 108.479,145.998 108.312,145.332 109,144.5C 119.062,134.271 129.228,124.271 139.5,114.5 Z"/></g>
<g><path style="opacity:1" fill="#937c68" d="M 97.5,138.5 C 94.9991,138.489 94.8324,137.822 97,136.5C 97.4643,137.094 97.631,137.761 97.5,138.5 Z"/></g>
<g><path style="opacity:1" fill="#3e4f53" d="M 189.5,125.5 C 174.215,138.782 159.215,152.449 144.5,166.5C 144.667,166.833 144.833,167.167 145,167.5C 147.925,165.286 150.759,162.953 153.5,160.5C 161.52,167.522 169.52,174.522 177.5,181.5C 179.167,182.833 180.833,184.167 182.5,185.5C 170.167,186.167 157.833,186.833 145.5,187.5C 145.328,188.492 145.662,189.158 146.5,189.5C 158.989,190.495 171.656,190.829 184.5,190.5C 184.5,196.833 184.5,203.167 184.5,209.5C 187.059,209.198 189.393,209.532 191.5,210.5C 185.771,210.212 180.104,210.546 174.5,211.5C 173.551,214.126 173.551,216.792 174.5,219.5C 169.046,221.491 164.046,220.824 159.5,217.5C 152.306,212.818 145.806,207.151 140,200.5C 130.721,188.249 121.221,176.249 111.5,164.5C 131.875,139.118 156.875,119.784 186.5,106.5C 186.56,107.043 186.893,107.376 187.5,107.5C 192.655,105.722 197.655,104.055 202.5,102.5C 204.069,103.714 204.902,105.381 205,107.5C 205.333,107.167 205.667,106.833 206,106.5C 206.494,108.134 206.66,109.801 206.5,111.5C 205.07,111.421 203.736,111.754 202.5,112.5C 198.035,109.226 193.369,109.392 188.5,113C 188.776,115.724 188.776,118.391 188.5,121C 191.842,122.124 192.175,123.624 189.5,125.5 Z"/></g>
<g><path style="opacity:0.129" fill="#470000" d="M 95.5,141.5 C 94.475,141.103 94.3083,140.437 95,139.5C 95.4643,140.094 95.631,140.761 95.5,141.5 Z"/></g>
<g><path style="opacity:1" fill="#bac0bf" d="M 255.5,122.5 C 255.833,122.5 256.167,122.5 256.5,122.5C 256.5,138.5 256.5,154.5 256.5,170.5C 258.5,170.5 260.5,170.5 262.5,170.5C 260.393,171.468 258.059,171.802 255.5,171.5C 255.5,155.167 255.5,138.833 255.5,122.5 Z"/></g>
<g><path style="opacity:0.129" fill="#000000" d="M 426.5,140.5 C 427.833,141.167 427.833,141.167 426.5,140.5 Z"/></g>
<g><path style="opacity:1" fill="#8d9092" d="M 96.5,140.5 C 97.525,140.897 97.6917,141.563 97,142.5C 93.5887,146.399 90.4221,150.399 87.5,154.5C 89.4032,149.693 92.0699,145.36 95.5,141.5C 96.1667,141.5 96.5,141.167 96.5,140.5 Z"/></g>
<g><path style="opacity:1" fill="#39484b" d="M 97.5,138.5 C 97.8333,138.5 98.1667,138.5 98.5,138.5C 98.5,138.833 98.5,139.167 98.5,139.5C 101.445,141.226 104.111,143.393 106.5,146C 104.744,146.202 103.078,146.702 101.5,147.5C 102.167,148.167 102.833,148.833 103.5,149.5C 99.8979,151.322 99.8979,152.322 103.5,152.5C 103.263,153.791 103.596,154.791 104.5,155.5C 104.586,156.496 104.252,157.329 103.5,158C 105.167,159.667 106.833,161.333 108.5,163C 106.152,163.346 104.319,164.513 103,166.5C 97.5654,174.784 92.7321,183.451 88.5,192.5C 86.9793,192.88 85.3126,193.046 83.5,193C 62.9833,245.271 66.15,296.104 93,345.5C 93,347.5 93,349.5 93,351.5C 99.1896,358.316 101.356,356.982 99.5,347.5C 100.833,348.167 101.833,349.167 102.5,350.5C 102.062,350.435 101.728,350.601 101.5,351C 112.252,365.92 124.586,379.42 138.5,391.5C 138.991,395.957 140.991,399.623 144.5,402.5C 143.653,404.061 143.986,405.561 145.5,407C 144.584,407.278 143.918,407.778 143.5,408.5C 126.108,394.792 110.441,379.292 96.5,362C 94.0207,361.638 92.0207,362.471 90.5,364.5C 86.9433,357.849 83.2766,351.849 79.5,346.5C 79.9118,344.027 78.9118,342.694 76.5,342.5C 75.4019,341.603 75.4019,340.77 76.5,340C 74.6992,339.683 74.3659,339.016 75.5,338C 73.6992,337.683 73.3659,337.016 74.5,336C 73,335.167 71.8333,334 71,332.5C 69.6906,328.901 68.1906,325.401 66.5,322C 65.9282,320.723 65.9282,319.223 66.5,317.5C 64.295,310.501 61.9616,303.501 59.5,296.5C 59.2528,295.287 58.5862,294.62 57.5,294.5C 57.5674,293.041 57.2341,291.708 56.5,290.5C 57.2389,290.631 57.9056,290.464 58.5,290C 57.944,285.961 56.944,282.128 55.5,278.5C 54.5433,272.614 54.5433,266.947 55.5,261.5C 55.5,260.833 55.5,260.167 55.5,259.5C 55.5,259.167 55.5,258.833 55.5,258.5C 54.7249,256.612 54.7249,254.612 55.5,252.5C 55.7373,251.209 55.404,250.209 54.5,249.5C 54.335,246.15 54.5017,242.817 55,239.5C 56.317,238.32 56.4837,236.82 55.5,235C 55.7549,233.674 56.4216,232.674 57.5,232C 56.243,228.019 56.9097,224.353 59.5,221C 59.0227,218.475 59.0227,216.141 59.5,214C 61.4339,210.922 62.7673,207.922 63.5,205C 62.3659,203.984 62.6992,203.317 64.5,203C 63.5252,200.588 64.1919,198.588 66.5,197C 66.0426,196.586 65.7093,196.086 65.5,195.5C 69.498,186.321 73.3313,177.988 77,170.5C 78.7107,167.041 80.8774,164.041 83.5,161.5C 85.0828,159.337 86.4161,157.004 87.5,154.5C 90.4221,150.399 93.5887,146.399 97,142.5C 97.6917,141.563 97.525,140.897 96.5,140.5C 96.8333,139.833 97.1667,139.167 97.5,138.5 Z"/></g>
<g><path style="opacity:0.129" fill="#000000" d="M 421.5,144.5 C 422.833,145.167 422.833,145.167 421.5,144.5 Z"/></g>
<g><path style="opacity:0.129" fill="#000000" d="M 424.5,146.5 C 425.833,147.167 425.833,147.167 424.5,146.5 Z"/></g>
<g><path style="opacity:1" fill="#8a8a8a" d="M 87.5,146.5 C 88.525,146.897 88.6917,147.563 88,148.5C 87.5357,147.906 87.369,147.239 87.5,146.5 Z"/></g>
<g><path style="opacity:1" fill="#8e8f89" d="M 411.5,137.5 C 413.463,138.96 415.296,140.627 417,142.5C 417.914,141.346 418.747,141.513 419.5,143C 418.833,143.333 418.167,143.667 417.5,144C 421.144,147.523 423.477,151.357 424.5,155.5C 420.169,149.508 415.836,143.508 411.5,137.5 Z"/></g>
<g><path style="opacity:1" fill="#dfe3e4" d="M 347.5,141.5 C 348.289,141.783 348.956,142.283 349.5,143C 346.833,145.667 344.167,148.333 341.5,151C 349.5,158.333 357.5,165.667 365.5,173C 365,173.5 364.5,174 364,174.5C 356,167.167 348,159.833 340,152.5C 328.315,163.02 316.481,173.353 304.5,183.5C 304.167,183.167 303.833,182.833 303.5,182.5C 318.187,168.812 332.854,155.145 347.5,141.5 Z"/></g>
<g><path style="opacity:0.129" fill="#334800" d="M 82.5,157.5 C 81.8333,157.5 81.5,157.167 81.5,156.5C 81.281,155.325 81.6143,154.325 82.5,153.5C 82.8333,153.833 83.1667,154.167 83.5,154.5C 82.8728,155.417 82.5394,156.417 82.5,157.5 Z"/></g>
<g><path style="opacity:1" fill="#e3e9ea" d="M 189.5,125.5 C 189.607,127.903 188.607,129.736 186.5,131C 176.024,139.642 166.024,148.809 156.5,158.5C 163.555,166.556 171.221,173.89 179.5,180.5C 178.508,180.328 177.842,180.662 177.5,181.5C 169.52,174.522 161.52,167.522 153.5,160.5C 150.759,162.953 147.925,165.286 145,167.5C 144.833,167.167 144.667,166.833 144.5,166.5C 159.215,152.449 174.215,138.782 189.5,125.5 Z"/></g>
<g><path style="opacity:1" fill="#8a8f85" d="M 87.5,154.5 C 86.4161,157.004 85.0828,159.337 83.5,161.5C 81.7428,160.708 80.4095,159.375 79.5,157.5C 79.9569,156.702 80.6236,156.369 81.5,156.5C 81.5,157.167 81.8333,157.5 82.5,157.5C 84.3325,156.752 85.9991,155.752 87.5,154.5 Z"/></g>
<g><path style="opacity:1" fill="#0b0f11" d="M 247.5,175.5 C 253.905,174.406 256.238,177.073 254.5,183.5C 250.846,183.942 247.179,184.276 243.5,184.5C 243.062,184.565 242.728,184.399 242.5,184C 244.064,181.029 245.73,178.196 247.5,175.5 Z"/></g>
<g><path style="opacity:1" fill="#222d30" d="M 408.5,176.5 C 420.706,195.779 428.372,216.779 431.5,239.5C 422.792,235.058 414.626,229.725 407,223.5C 406.536,224.094 406.369,224.761 406.5,225.5C 405.775,222.231 404.108,219.398 401.5,217C 386.833,216.333 372.167,216.333 357.5,217C 355.84,218.488 354.84,220.321 354.5,222.5C 352.159,228.156 350.826,234.156 350.5,240.5C 348.097,240.448 345.764,240.781 343.5,241.5C 344.285,236.248 344.785,230.915 345,225.5C 348.226,223.131 350.392,220.131 351.5,216.5C 356.305,211.866 361.305,207.366 366.5,203C 370.747,199.258 374.414,195.092 377.5,190.5C 378.167,190.5 378.5,190.167 378.5,189.5C 378.5,189.167 378.5,188.833 378.5,188.5C 379.167,188.5 379.5,188.167 379.5,187.5C 382.394,186.118 384.894,184.118 387,181.5C 391.343,176.325 395.843,171.325 400.5,166.5C 402.81,170.141 405.477,173.474 408.5,176.5 Z"/></g>
<g><path style="opacity:1" fill="#070c0e" d="M 263.5,175.5 C 266.058,177.899 268.058,180.732 269.5,184C 268.552,184.483 267.552,184.649 266.5,184.5C 263.193,183.949 259.86,183.616 256.5,183.5C 256.5,180.833 256.5,178.167 256.5,175.5C 258.833,175.5 261.167,175.5 263.5,175.5 Z"/></g>
<g><path style="opacity:1" fill="#222d31" d="M 111.5,164.5 C 121.221,176.249 130.721,188.249 140,200.5C 145.806,207.151 152.306,212.818 159.5,217.5C 159.062,217.435 158.728,217.601 158.5,218C 162,220.833 165.5,223.667 169,226.5C 169.499,231.489 169.666,236.489 169.5,241.5C 166.57,240.701 163.57,240.368 160.5,240.5C 160.494,235.785 159.994,231.118 159,226.5C 157.914,222.654 156.081,219.32 153.5,216.5C 139.163,216.333 124.829,216.5 110.5,217C 108.907,217.949 107.574,219.115 106.5,220.5C 96.4875,228.185 87.1542,236.518 78.5,245.5C 82.0749,215.367 93.0749,188.367 111.5,164.5 Z"/></g>
<g><path style="opacity:0.129" fill="#004800" d="M 62.5,182.5 C 63.8333,183.167 63.8333,183.167 62.5,182.5 Z"/></g>
<g><path style="opacity:1" fill="#bcc1c1" d="M 182.5,185.5 C 183.043,185.56 183.376,185.893 183.5,186.5C 170.851,187.499 158.184,187.832 145.5,187.5C 157.833,186.833 170.167,186.167 182.5,185.5 Z"/></g>
<g><path style="opacity:1" fill="#b4bab9" d="M 272.5,186.5 C 308.337,186.168 344.004,186.502 379.5,187.5C 379.5,188.167 379.167,188.5 378.5,188.5C 343.167,187.833 307.833,187.167 272.5,186.5 Z"/></g>
<g><path style="opacity:1" fill="#9eacac" d="M 146.5,189.5 C 175.508,189.167 204.508,189.5 233.5,190.5C 233.376,191.107 233.043,191.44 232.5,191.5C 216.675,190.504 200.675,190.17 184.5,190.5C 171.656,190.829 158.989,190.495 146.5,189.5 Z"/></g>
<g><path style="opacity:1" fill="#9da9aa" d="M 378.5,189.5 C 378.5,190.167 378.167,190.5 377.5,190.5C 358.5,190.5 339.5,190.5 320.5,190.5C 312.167,190.5 303.833,190.5 295.5,190.5C 289.31,190.177 283.31,190.51 277.5,191.5C 276.957,191.44 276.624,191.107 276.5,190.5C 310.493,189.5 344.493,189.167 378.5,189.5 Z"/></g>
<g><path style="opacity:1" fill="#3e5153" d="M 320.5,190.5 C 339.5,190.5 358.5,190.5 377.5,190.5C 374.414,195.092 370.747,199.258 366.5,203C 361.305,207.366 356.305,211.866 351.5,216.5C 348.851,218.14 346.184,219.807 343.5,221.5C 342.158,219.995 340.492,219.328 338.5,219.5C 339.523,216.607 339.523,213.774 338.5,211C 332.509,210.501 326.509,210.334 320.5,210.5C 320.5,203.833 320.5,197.167 320.5,190.5 Z"/></g>
<g><path style="opacity:1" fill="#242f33" d="M 184.5,190.5 C 200.675,190.17 216.675,190.504 232.5,191.5C 222.876,203.791 212.209,215.125 200.5,225.5C 197.761,223.149 195.095,220.816 192.5,218.5C 193.693,218.03 194.36,217.03 194.5,215.5C 194.48,214.274 194.147,213.274 193.5,212.5C 193.5,211.167 192.833,210.5 191.5,210.5C 189.393,209.532 187.059,209.198 184.5,209.5C 184.5,203.167 184.5,196.833 184.5,190.5 Z"/></g>
<g><path style="opacity:1" fill="#232f33" d="M 295.5,190.5 C 303.833,190.5 312.167,190.5 320.5,190.5C 320.5,197.167 320.5,203.833 320.5,210.5C 319.733,211.172 319.066,212.005 318.5,213C 319.337,214.011 319.67,215.178 319.5,216.5C 322.187,216.336 324.854,216.503 327.5,217C 325.19,217.497 322.857,217.663 320.5,217.5C 320.512,220.142 319.179,221.475 316.5,221.5C 313.302,220.3 309.969,220.3 306.5,221.5C 298.77,214.772 291.77,207.439 285.5,199.5C 289.502,197.161 292.835,194.161 295.5,190.5 Z"/></g>
<g><path style="opacity:1" fill="#3e4e55" d="M 295.5,190.5 C 292.835,194.161 289.502,197.161 285.5,199.5C 282.5,197.167 279.833,194.5 277.5,191.5C 283.31,190.51 289.31,190.177 295.5,190.5 Z"/></g>
<g><path style="opacity:1" fill="#9d9a90" d="M 442.5,187.5 C 444.294,189.797 446.294,191.963 448.5,194C 447.833,194.333 447.167,194.667 446.5,195C 447.194,196.702 447.194,198.536 446.5,200.5C 445.066,196.292 443.4,192.125 441.5,188C 441.728,187.601 442.062,187.435 442.5,187.5 Z"/></g>
<g><path style="opacity:1" fill="#f9faf9" d="M 255.5,122.5 C 255.5,138.833 255.5,155.167 255.5,171.5C 258.059,171.802 260.393,171.468 262.5,170.5C 264.764,171.219 267.097,171.552 269.5,171.5C 269.5,172.833 269.5,174.167 269.5,175.5C 267.5,175.5 265.5,175.5 263.5,175.5C 261.167,175.5 258.833,175.5 256.5,175.5C 256.5,178.167 256.5,180.833 256.5,183.5C 259.86,183.616 263.193,183.949 266.5,184.5C 268.5,185.167 270.5,185.833 272.5,186.5C 307.833,187.167 343.167,187.833 378.5,188.5C 378.5,188.833 378.5,189.167 378.5,189.5C 344.493,189.167 310.493,189.5 276.5,190.5C 276.624,191.107 276.957,191.44 277.5,191.5C 279.833,194.5 282.5,197.167 285.5,199.5C 291.77,207.439 298.77,214.772 306.5,221.5C 307.625,223.129 308.959,224.629 310.5,226C 307.382,227.147 304.382,228.48 301.5,230C 302,230.5 302.5,231 303,231.5C 304.993,229.622 307.159,229.288 309.5,230.5C 310.074,233.177 310.741,235.843 311.5,238.5C 311.91,234.896 312.077,231.229 312,227.5C 316.337,233.003 321.17,238.003 326.5,242.5C 328.167,243.167 329.833,243.833 331.5,244.5C 324.963,244.586 318.63,245.253 312.5,246.5C 309.72,245.805 307.053,244.805 304.5,243.5C 302.954,243.276 301.287,242.943 299.5,242.5C 300.59,241.391 300.59,240.391 299.5,239.5C 297.501,241.493 296.001,243.827 295,246.5C 287.299,266.652 279.299,286.652 271,306.5C 269.734,310.395 269.234,314.395 269.5,318.5C 259.584,318.819 249.75,318.486 240,317.5C 239.869,312.318 238.869,307.318 237,302.5C 228.911,281.224 220.244,260.224 211,239.5C 210.667,241.167 210.333,242.833 210,244.5C 207.916,242.137 206.083,242.137 204.5,244.5C 202.97,245.067 201.47,245.733 200,246.5C 195.76,244.51 191.426,244.177 187,245.5C 185.266,244.751 183.433,244.251 181.5,244C 182.416,243.722 183.082,243.222 183.5,242.5C 184.738,243.412 186.072,243.579 187.5,243C 192.066,238.524 196.399,233.857 200.5,229C 202.675,229.049 204.842,229.549 207,230.5C 207.5,230.167 208,229.833 208.5,229.5C 205.652,228.341 202.985,227.008 200.5,225.5C 212.209,215.125 222.876,203.791 232.5,191.5C 233.043,191.44 233.376,191.107 233.5,190.5C 204.508,189.5 175.508,189.167 146.5,189.5C 145.662,189.158 145.328,188.492 145.5,187.5C 158.184,187.832 170.851,187.499 183.5,186.5C 183.376,185.893 183.043,185.56 182.5,185.5C 180.833,184.167 179.167,182.833 177.5,181.5C 177.842,180.662 178.508,180.328 179.5,180.5C 181.671,182.5 184.004,184.334 186.5,186C 203.833,186.667 221.167,186.667 238.5,186C 240.196,184.795 241.863,184.295 243.5,184.5C 247.179,184.276 250.846,183.942 254.5,183.5C 256.238,177.073 253.905,174.406 247.5,175.5C 245.167,175.5 242.833,175.5 240.5,175.5C 240.5,174.167 240.5,172.833 240.5,171.5C 245.167,171.5 249.833,171.5 254.5,171.5C 254.17,154.991 254.504,138.658 255.5,122.5 Z"/></g>
<g><path style="opacity:1" fill="#0a1215" d="M 254.5,229.5 C 254.167,229.5 253.833,229.5 253.5,229.5C 244.487,229.44 235.487,229.107 226.5,228.5C 228.579,218.844 231.579,209.51 235.5,200.5C 241.822,199.986 248.155,199.653 254.5,199.5C 254.5,209.5 254.5,219.5 254.5,229.5 Z"/></g>
<g><path style="opacity:1" fill="#091115" d="M 263.5,200.5 C 268.23,200.283 272.897,200.617 277.5,201.5C 280.089,210.021 282.755,218.521 285.5,227C 284.944,227.383 284.611,227.883 284.5,228.5C 275.18,229.129 265.846,229.462 256.5,229.5C 256.5,227.167 256.5,224.833 256.5,222.5C 256.5,215.167 256.5,207.833 256.5,200.5C 258.833,200.5 261.167,200.5 263.5,200.5 Z"/></g>
<g><path style="opacity:1" fill="#b3b7b9" d="M 277.5,201.5 C 277.833,201.5 278.167,201.5 278.5,201.5C 281.772,209.981 284.438,218.648 286.5,227.5C 286.158,228.338 285.492,228.672 284.5,228.5C 284.611,227.883 284.944,227.383 285.5,227C 282.755,218.521 280.089,210.021 277.5,201.5 Z"/></g>
<g><path style="opacity:1" fill="#f1f2f2" d="M 191.5,210.5 C 192.833,210.5 193.5,211.167 193.5,212.5C 193.66,214.199 193.494,215.866 193,217.5C 188.991,215.444 184.824,215.111 180.5,216.5C 184.303,216.911 188.303,217.578 192.5,218.5C 195.095,220.816 197.761,223.149 200.5,225.5C 197.092,224.633 193.758,223.467 190.5,222C 184.956,222.003 179.622,221.169 174.5,219.5C 173.551,216.792 173.551,214.126 174.5,211.5C 180.104,210.546 185.771,210.212 191.5,210.5 Z"/></g>
<g><path style="opacity:1" fill="#8d8f91" d="M 263.5,200.5 C 261.167,200.5 258.833,200.5 256.5,200.5C 256.5,207.833 256.5,215.167 256.5,222.5C 255.508,215.018 255.175,207.352 255.5,199.5C 258.385,199.194 261.052,199.527 263.5,200.5 Z"/></g>
<g><path style="opacity:1" fill="#eeefee" d="M 320.5,210.5 C 326.509,210.334 332.509,210.501 338.5,211C 339.523,213.774 339.523,216.607 338.5,219.5C 332.99,221.046 327.324,221.879 321.5,222C 318.5,223.5 315.5,225 312.5,226.5C 312.077,223.876 313.41,222.209 316.5,221.5C 319.179,221.475 320.512,220.142 320.5,217.5C 322.857,217.663 325.19,217.497 327.5,217C 324.854,216.503 322.187,216.336 319.5,216.5C 319.67,215.178 319.337,214.011 318.5,213C 319.066,212.005 319.733,211.172 320.5,210.5 Z"/></g>
<g><path style="opacity:1" fill="#a8a7a9" d="M 450.5,211.5 C 452.37,214.809 453.37,218.475 453.5,222.5C 451.742,219.146 450.742,215.479 450.5,211.5 Z"/></g>
<g><path style="opacity:1" fill="#121619" d="M 278.5,201.5 C 280.917,201.978 283.084,202.978 285,204.5C 287.813,211.774 290.313,219.107 292.5,226.5C 290.5,226.833 288.5,227.167 286.5,227.5C 284.438,218.648 281.772,209.981 278.5,201.5 Z"/></g>
<g><path style="opacity:1" fill="#fafbfb" d="M 153.5,216.5 C 152.232,217.787 152.565,218.787 154.5,219.5C 153.757,220.182 153.091,220.849 152.5,221.5C 149.41,225.931 147.576,230.931 147,236.5C 144.611,261.448 143.944,286.448 145,311.5C 145.541,316.329 146.707,320.996 148.5,325.5C 136.18,326.666 123.847,326.833 111.5,326C 110.473,325.487 109.473,324.987 108.5,324.5C 108.5,323.833 108.167,323.5 107.5,323.5C 105.434,319.798 104.267,315.798 104,311.5C 102.5,289.854 102.167,268.188 103,246.5C 103.513,237.726 104.68,229.06 106.5,220.5C 107.574,219.115 108.907,217.949 110.5,217C 124.829,216.5 139.163,216.333 153.5,216.5 Z"/></g>
<g><path style="opacity:1" fill="#fbfcfb" d="M 406.5,225.5 C 409.354,247.404 410.187,269.404 409,291.5C 408.322,302.011 406.822,312.344 404.5,322.5C 403.5,323.5 402.5,324.5 401.5,325.5C 401.167,325.5 400.833,325.5 400.5,325.5C 387.989,325.829 375.655,325.495 363.5,324.5C 364.804,319.286 365.637,313.952 366,308.5C 367.562,281.334 366.229,254.334 362,227.5C 361.288,225.153 360.121,223.153 358.5,221.5C 357.265,222.34 356.265,223.34 355.5,224.5C 354.662,224.158 354.328,223.492 354.5,222.5C 354.84,220.321 355.84,218.488 357.5,217C 372.167,216.333 386.833,216.333 401.5,217C 404.108,219.398 405.775,222.231 406.5,225.5 Z"/></g>
<g><path style="opacity:1" fill="#999a9a" d="M 193.5,212.5 C 194.147,213.274 194.48,214.274 194.5,215.5C 194.36,217.03 193.693,218.03 192.5,218.5C 188.303,217.578 184.303,216.911 180.5,216.5C 184.824,215.111 188.991,215.444 193,217.5C 193.494,215.866 193.66,214.199 193.5,212.5 Z"/></g>
<g><path style="opacity:1" fill="#c0c4c6" d="M 232.5,201.5 C 233.209,200.596 234.209,200.263 235.5,200.5C 231.579,209.51 228.579,218.844 226.5,228.5C 224.901,228.768 223.568,228.434 222.5,227.5C 223.75,227.423 224.583,226.756 225,225.5C 227.271,217.625 230.104,209.959 233.5,202.5C 233.376,201.893 233.043,201.56 232.5,201.5 Z"/></g>
<g><path style="opacity:1" fill="#101518" d="M 232.5,201.5 C 233.043,201.56 233.376,201.893 233.5,202.5C 230.104,209.959 227.271,217.625 225,225.5C 224.583,226.756 223.75,227.423 222.5,227.5C 220.335,227.884 218.668,227.217 217.5,225.5C 220.228,220.044 222.395,214.378 224,208.5C 225.205,204.123 228.039,201.79 232.5,201.5 Z"/></g>
<g><path style="opacity:1" fill="#091115" d="M 351.5,216.5 C 350.392,220.131 348.226,223.131 345,225.5C 344.785,230.915 344.285,236.248 343.5,241.5C 337.855,242.134 332.189,242.468 326.5,242.5C 321.17,238.003 316.337,233.003 312,227.5C 312.077,231.229 311.91,234.896 311.5,238.5C 310.741,235.843 310.074,233.177 309.5,230.5C 307.159,229.288 304.993,229.622 303,231.5C 302.5,231 302,230.5 301.5,230C 304.382,228.48 307.382,227.147 310.5,226C 308.959,224.629 307.625,223.129 306.5,221.5C 309.969,220.3 313.302,220.3 316.5,221.5C 313.41,222.209 312.077,223.876 312.5,226.5C 315.5,225 318.5,223.5 321.5,222C 327.324,221.879 332.99,221.046 338.5,219.5C 340.492,219.328 342.158,219.995 343.5,221.5C 346.184,219.807 348.851,218.14 351.5,216.5 Z"/></g>
<g><path style="opacity:0.129" fill="#004800" d="M 456.5,224.5 C 457.598,225.601 457.765,226.934 457,228.5C 456.51,227.207 456.343,225.873 456.5,224.5 Z"/></g>
<g><path style="opacity:1" fill="#adadac" d="M 413.5,171.5 C 418.69,179.99 423.69,187.99 428.5,195.5C 430.462,198.865 431.962,202.532 433,206.5C 450.914,264.686 441.748,318.019 405.5,366.5C 404.354,365.855 403.354,365.022 402.5,364C 406.122,359.255 409.622,354.422 413,349.5C 417.643,339.547 422.81,329.881 428.5,320.5C 425.987,319.272 423.987,317.605 422.5,315.5C 425.776,307.005 428.443,298.339 430.5,289.5C 433.285,273.978 434.118,258.311 433,242.5C 432.487,241.473 431.987,240.473 431.5,239.5C 428.372,216.779 420.706,195.779 408.5,176.5C 409.833,174.5 411.5,172.833 413.5,171.5 Z"/></g>
<g><path style="opacity:1" fill="#071216" d="M 106.5,220.5 C 104.68,229.06 103.513,237.726 103,246.5C 102.167,268.188 102.5,289.854 104,311.5C 104.267,315.798 105.434,319.798 107.5,323.5C 102.833,323.5 98.1667,323.5 93.5,323.5C 93.1667,323.5 92.8333,323.5 92.5,323.5C 92.0113,322.005 91.3446,320.671 90.5,319.5C 85.7619,306.45 81.9286,293.116 79,279.5C 78.5001,268.172 78.3335,256.838 78.5,245.5C 87.1542,236.518 96.4875,228.185 106.5,220.5 Z"/></g>
<g><path style="opacity:1" fill="#091114" d="M 159.5,217.5 C 164.046,220.824 169.046,221.491 174.5,219.5C 179.622,221.169 184.956,222.003 190.5,222C 193.758,223.467 197.092,224.633 200.5,225.5C 202.985,227.008 205.652,228.341 208.5,229.5C 208,229.833 207.5,230.167 207,230.5C 204.842,229.549 202.675,229.049 200.5,229C 196.399,233.857 192.066,238.524 187.5,243C 186.072,243.579 184.738,243.412 183.5,242.5C 178.797,242.563 174.13,242.229 169.5,241.5C 169.666,236.489 169.499,231.489 169,226.5C 165.5,223.667 162,220.833 158.5,218C 158.728,217.601 159.062,217.435 159.5,217.5 Z"/></g>
<g><path style="opacity:1" fill="#061115" d="M 431.5,239.5 C 431.987,240.473 432.487,241.473 433,242.5C 434.118,258.311 433.285,273.978 430.5,289.5C 424.681,291.796 419.181,294.796 414,298.5C 413.333,299.833 413.333,301.167 414,302.5C 416.328,306.98 418.828,311.313 421.5,315.5C 420.499,318.172 419.499,320.838 418.5,323.5C 413.637,323.819 408.97,323.486 404.5,322.5C 406.822,312.344 408.322,302.011 409,291.5C 410.187,269.404 409.354,247.404 406.5,225.5C 406.369,224.761 406.536,224.094 407,223.5C 414.626,229.725 422.792,235.058 431.5,239.5 Z"/></g>
<g><path style="opacity:0.129" fill="#474800" d="M 54.5,249.5 C 53.8333,250.167 53.8333,250.167 54.5,249.5 Z"/></g>
<g><path style="opacity:0.129" fill="#274800" d="M 51.5,256.5 C 51.1667,255.833 50.8333,255.167 50.5,254.5C 51.1174,254.389 51.6174,254.056 52,253.5C 52.7401,254.749 52.5735,255.749 51.5,256.5 Z"/></g>
<g><path style="opacity:1" fill="#c4c4be" d="M 55.5,252.5 C 54.7249,254.612 54.7249,256.612 55.5,258.5C 54.1667,258.833 54.1667,259.167 55.5,259.5C 55.5,260.167 55.5,260.833 55.5,261.5C 54.8826,261.389 54.3826,261.056 54,260.5C 53.3333,257.5 53.3333,254.5 54,251.5C 54.3826,252.056 54.8826,252.389 55.5,252.5 Z"/></g>
<g><path style="opacity:1" fill="#c7c6bb" d="M 50.5,254.5 C 50.8333,255.167 51.1667,255.833 51.5,256.5C 50.7839,256.783 49.9506,257.116 49,257.5C 48.2748,255.843 48.7748,254.843 50.5,254.5 Z"/></g>
<g><path style="opacity:1" fill="#cfd0d0" d="M 153.5,216.5 C 156.081,219.32 157.914,222.654 159,226.5C 159.994,231.118 160.494,235.785 160.5,240.5C 163.57,240.368 166.57,240.701 169.5,241.5C 174.13,242.229 178.797,242.563 183.5,242.5C 183.082,243.222 182.416,243.722 181.5,244C 183.433,244.251 185.266,244.751 187,245.5C 191.426,244.177 195.76,244.51 200,246.5C 201.47,245.733 202.97,245.067 204.5,244.5C 206.655,244.372 208.655,244.872 210.5,246C 206.205,247.225 201.872,248.558 197.5,250C 195.934,250.608 194.6,251.442 193.5,252.5C 191.447,252.402 189.78,253.069 188.5,254.5C 182.03,255.735 176.363,258.568 171.5,263C 175.223,263.016 178.89,262.516 182.5,261.5C 186.454,261.293 190.454,261.293 194.5,261.5C 186.304,263.644 177.97,265.144 169.5,266C 167.751,266.785 166.084,267.618 164.5,268.5C 165.859,266.991 165.359,266.324 163,266.5C 159.269,267.891 155.436,268.891 151.5,269.5C 151.335,265.818 151.501,262.152 152,258.5C 152.912,260.659 153.745,262.825 154.5,265C 162.588,265.86 169.588,263.526 175.5,258C 169.661,258.413 163.827,259.246 158,260.5C 156.833,260.333 155.667,260.167 154.5,260C 154.833,259.667 155.167,259.333 155.5,259C 168.752,257.017 181.752,254.017 194.5,250C 182.771,249.046 171.104,247.212 159.5,244.5C 159.709,243.914 160.043,243.414 160.5,243C 159.002,236.535 157.502,230.035 156,223.5C 155.184,222.177 154.017,221.511 152.5,221.5C 153.091,220.849 153.757,220.182 154.5,219.5C 152.565,218.787 152.232,217.787 153.5,216.5 Z"/></g>
<g><path style="opacity:0.129" fill="#470000" d="M 50.5,258.5 C 51.8333,259.167 51.8333,259.167 50.5,258.5 Z"/></g>
<g><path style="opacity:1" fill="#818788" d="M 455.5,243.5 C 456.825,247.276 457.491,251.443 457.5,256C 457.565,263.714 456.899,271.214 455.5,278.5C 455.5,266.833 455.5,255.167 455.5,243.5 Z"/></g>
<g><path style="opacity:1" fill="#7a8281" d="M 55.5,278.5 C 56.944,282.128 57.944,285.961 58.5,290C 57.9056,290.464 57.2389,290.631 56.5,290.5C 56.1084,287.854 56.1084,285.354 56.5,283C 55.8333,281.667 55.1667,280.333 54.5,279C 54.7284,278.601 55.0618,278.435 55.5,278.5 Z"/></g>
<g><path style="opacity:1" fill="#081014" d="M 152.5,221.5 C 154.017,221.511 155.184,222.177 156,223.5C 157.502,230.035 159.002,236.535 160.5,243C 160.043,243.414 159.709,243.914 159.5,244.5C 171.104,247.212 182.771,249.046 194.5,250C 181.752,254.017 168.752,257.017 155.5,259C 155.167,259.333 154.833,259.667 154.5,260C 155.667,260.167 156.833,260.333 158,260.5C 163.827,259.246 169.661,258.413 175.5,258C 169.588,263.526 162.588,265.86 154.5,265C 153.745,262.825 152.912,260.659 152,258.5C 151.501,262.152 151.335,265.818 151.5,269.5C 155.436,268.891 159.269,267.891 163,266.5C 165.359,266.324 165.859,266.991 164.5,268.5C 166.084,267.618 167.751,266.785 169.5,266C 177.97,265.144 186.304,263.644 194.5,261.5C 196.819,261.008 198.819,260.008 200.5,258.5C 206.049,257.614 211.382,256.114 216.5,254C 215.57,253.009 214.404,252.509 213,252.5C 209.436,253.7 205.936,255.034 202.5,256.5C 202.5,256.167 202.5,255.833 202.5,255.5C 201.989,253.805 201.322,252.139 200.5,250.5C 198.271,251.577 195.937,252.244 193.5,252.5C 194.6,251.442 195.934,250.608 197.5,250C 201.872,248.558 206.205,247.225 210.5,246C 208.655,244.872 206.655,244.372 204.5,244.5C 206.083,242.137 207.916,242.137 210,244.5C 210.333,242.833 210.667,241.167 211,239.5C 220.244,260.224 228.911,281.224 237,302.5C 238.869,307.318 239.869,312.318 240,317.5C 249.75,318.486 259.584,318.819 269.5,318.5C 269.234,314.395 269.734,310.395 271,306.5C 279.299,286.652 287.299,266.652 295,246.5C 296.001,243.827 297.501,241.493 299.5,239.5C 300.59,240.391 300.59,241.391 299.5,242.5C 301.287,242.943 302.954,243.276 304.5,243.5C 302.8,244.016 301.467,245.016 300.5,246.5C 302.743,247.474 305.076,247.808 307.5,247.5C 307.5,248.167 307.833,248.5 308.5,248.5C 319.072,251.617 329.072,256.117 338.5,262C 339.696,262.654 339.696,263.154 338.5,263.5C 334.508,262.76 330.508,262.094 326.5,261.5C 327.625,260.348 327.625,259.348 326.5,258.5C 324.2,255.676 321.2,253.843 317.5,253C 314.607,251.851 311.607,251.351 308.5,251.5C 308.5,253.167 308.5,254.833 308.5,256.5C 304.623,255.312 300.789,253.979 297,252.5C 293.904,252.535 293.238,253.535 295,255.5C 301.242,256.526 307.409,257.86 313.5,259.5C 316.254,260.946 319.254,261.946 322.5,262.5C 334.985,264.302 347.319,266.635 359.5,269.5C 359.666,265.486 359.499,261.486 359,257.5C 358.255,260.545 356.922,263.211 355,265.5C 346.903,265.582 340.069,262.749 334.5,257C 341.199,257.612 347.866,258.779 354.5,260.5C 355.167,260.167 355.833,259.833 356.5,259.5C 354.668,258.943 353.335,257.943 352.5,256.5C 352.335,252.818 352.501,249.152 353,245.5C 356.139,243.894 355.972,242.561 352.5,241.5C 352.704,235.687 353.704,230.02 355.5,224.5C 356.265,223.34 357.265,222.34 358.5,221.5C 360.121,223.153 361.288,225.153 362,227.5C 366.229,254.334 367.562,281.334 366,308.5C 365.637,313.952 364.804,319.286 363.5,324.5C 362.957,324.56 362.624,324.893 362.5,325.5C 375.327,326.825 387.994,326.825 400.5,325.5C 400.833,325.5 401.167,325.5 401.5,325.5C 402.458,325.953 403.292,326.619 404,327.5C 405.925,331.687 408.092,335.687 410.5,339.5C 411.473,341.068 411.64,342.735 411,344.5C 409.606,346.388 408.44,348.388 407.5,350.5C 403.481,350.646 399.481,350.979 395.5,351.5C 386.186,352.599 376.853,353.099 367.5,353C 364.353,348.521 361.353,344.021 358.5,339.5C 356.89,335.9 354.89,332.566 352.5,329.5C 352.5,328.833 352.167,328.5 351.5,328.5C 351.5,328.167 351.5,327.833 351.5,327.5C 349.632,322.562 347.965,317.562 346.5,312.5C 332.538,313.781 318.538,314.614 304.5,315C 302.626,318.581 300.626,322.081 298.5,325.5C 290.01,326.167 281.676,326.833 273.5,327.5C 273.5,328.167 273.5,328.833 273.5,329.5C 280.655,330.329 287.989,330.829 295.5,331C 291.333,337.833 287.167,344.667 283,351.5C 281.846,352.743 280.512,353.743 279,354.5C 274.797,363.079 269.963,371.246 264.5,379C 262.19,379.497 259.857,379.663 257.5,379.5C 257.167,379.5 256.833,379.5 256.5,379.5C 256.826,371.316 256.492,363.316 255.5,355.5C 253.533,363.097 252.866,371.097 253.5,379.5C 248.821,379.666 244.155,379.499 239.5,379C 238.584,378.626 237.75,378.126 237,377.5C 227.634,362.098 218.801,346.431 210.5,330.5C 215.5,330.5 220.5,330.5 225.5,330.5C 225.737,329.209 225.404,328.209 224.5,327.5C 219.319,326.833 213.985,326.167 208.5,325.5C 206.799,322.147 205.132,318.814 203.5,315.5C 192.316,314.657 181.149,313.657 170,312.5C 169.167,312.833 168.333,313.167 167.5,313.5C 165.153,318.193 162.82,322.86 160.5,327.5C 160.167,328.167 159.833,328.833 159.5,329.5C 155.148,337.692 150.148,345.526 144.5,353C 134.454,353.183 124.454,352.683 114.5,351.5C 110.4,351.763 106.4,351.43 102.5,350.5C 101.833,349.167 100.833,348.167 99.5,347.5C 99.298,345.05 99.6314,342.717 100.5,340.5C 103.104,335.625 105.438,330.625 107.5,325.5C 108.167,325.5 108.5,325.167 108.5,324.5C 109.473,324.987 110.473,325.487 111.5,326C 123.847,326.833 136.18,326.666 148.5,325.5C 146.707,320.996 145.541,316.329 145,311.5C 143.944,286.448 144.611,261.448 147,236.5C 147.576,230.931 149.41,225.931 152.5,221.5 Z"/></g>
<g><path style="opacity:1" fill="#525657" d="M 219.5,277.5 C 220.486,281.97 220.819,286.637 220.5,291.5C 218.585,291.784 216.919,291.451 215.5,290.5C 216.833,290.5 218.167,290.5 219.5,290.5C 219.5,286.167 219.5,281.833 219.5,277.5 Z"/></g>
<g><path style="opacity:1" fill="#c3c5c6" d="M 327.5,276.5 C 327.338,278.527 327.505,280.527 328,282.5C 334.666,279.83 341.5,277.997 348.5,277C 341.095,280.185 333.429,282.685 325.5,284.5C 326.078,281.72 326.745,279.053 327.5,276.5 Z"/></g>
<g><path style="opacity:1" fill="#c8c8ca" d="M 181.5,281.5 C 181.5,282.167 181.5,282.833 181.5,283.5C 174.88,282.293 168.547,280.293 162.5,277.5C 162.833,277.167 163.167,276.833 163.5,276.5C 169.332,278.791 175.332,280.458 181.5,281.5 Z"/></g>
<g><path style="opacity:1" fill="#8f9197" d="M 359.5,273.5 C 360.797,275.693 360.797,278.027 359.5,280.5C 358.893,280.376 358.56,280.043 358.5,279.5C 359.461,277.735 359.795,275.735 359.5,273.5 Z"/></g>
<g><path style="opacity:1" fill="#e5e4e4" d="M 164.5,268.5 C 163.162,270.67 161.328,272.336 159,273.5C 159.019,275.107 159.185,276.774 159.5,278.5C 156.687,278.548 154.021,279.215 151.5,280.5C 150.526,278.257 150.192,275.924 150.5,273.5C 152.591,273.318 154.591,273.652 156.5,274.5C 158.83,272.007 161.497,270.007 164.5,268.5 Z"/></g>
<g><path style="opacity:1" fill="#d2d4d4" d="M 326.5,265.5 C 334.421,267.287 342.087,269.953 349.5,273.5C 349.833,273.333 350.167,273.167 350.5,273C 348.833,271.333 347.167,269.667 345.5,268C 345.833,267.833 346.167,267.667 346.5,267.5C 349.177,269.678 351.677,272.011 354,274.5C 355.699,273.594 357.533,273.261 359.5,273.5C 359.795,275.735 359.461,277.735 358.5,279.5C 348.561,274.619 338.228,270.286 327.5,266.5C 326.833,266.5 326.5,266.167 326.5,265.5 Z"/></g>
<g><path style="opacity:1" fill="#c2c4c4" d="M 184.5,265.5 C 183.833,266.167 183.167,266.833 182.5,267.5C 175.299,270.627 167.965,273.127 160.5,275C 168.224,271.147 176.224,267.981 184.5,265.5 Z"/></g>
<g><path style="opacity:1" fill="#e3e4e4" d="M 344.5,246.5 C 335.355,247.274 326.355,248.44 317.5,250C 328.235,253.568 339.235,256.068 350.5,257.5C 351.167,257.167 351.833,256.833 352.5,256.5C 353.335,257.943 354.668,258.943 356.5,259.5C 355.833,259.833 355.167,260.167 354.5,260.5C 347.866,258.779 341.199,257.612 334.5,257C 340.069,262.749 346.903,265.582 355,265.5C 356.922,263.211 358.255,260.545 359,257.5C 359.499,261.486 359.666,265.486 359.5,269.5C 347.319,266.635 334.985,264.302 322.5,262.5C 323.568,261.566 324.901,261.232 326.5,261.5C 330.508,262.094 334.508,262.76 338.5,263.5C 339.696,263.154 339.696,262.654 338.5,262C 329.072,256.117 319.072,251.617 308.5,248.5C 309.833,247.833 311.167,247.167 312.5,246.5C 320.403,246.864 328.07,246.197 335.5,244.5C 339.535,244.607 343.535,244.274 347.5,243.5C 348.5,243.833 349.5,244.167 350.5,244.5C 348.369,245.169 346.369,245.835 344.5,246.5 Z"/></g>
<g><path style="opacity:1" fill="#f7f8f8" d="M 326.5,265.5 C 326.5,266.167 326.833,266.5 327.5,266.5C 327.5,269.833 327.5,273.167 327.5,276.5C 326.745,279.053 326.078,281.72 325.5,284.5C 317.889,286.319 310.222,287.985 302.5,289.5C 300.494,289.517 298.494,289.85 296.5,290.5C 294.565,291.15 292.565,291.483 290.5,291.5C 290.337,282.105 291.004,272.772 292.5,263.5C 299.232,265.266 305.565,264.599 311.5,261.5C 316.493,262.941 321.493,264.275 326.5,265.5 Z"/></g>
<g><path style="opacity:1" fill="#f9f9f9" d="M 219.5,277.5 C 219.5,281.833 219.5,286.167 219.5,290.5C 218.167,290.5 216.833,290.5 215.5,290.5C 203.882,289.402 192.549,287.068 181.5,283.5C 181.5,282.833 181.5,282.167 181.5,281.5C 182.486,277.03 182.819,272.363 182.5,267.5C 183.167,266.833 183.833,266.167 184.5,265.5C 190,264.457 195.333,262.79 200.5,260.5C 201.262,261.628 201.929,262.795 202.5,264C 207.871,264.676 213.204,264.509 218.5,263.5C 218.669,268.181 219.002,272.848 219.5,277.5 Z"/></g>
<g><path style="opacity:1" fill="#a1a5a5" d="M 308.5,256.5 C 313.453,257.624 318.453,258.624 323.5,259.5C 324.726,259.48 325.726,259.147 326.5,258.5C 327.625,259.348 327.625,260.348 326.5,261.5C 324.901,261.232 323.568,261.566 322.5,262.5C 319.254,261.946 316.254,260.946 313.5,259.5C 311.928,258.313 310.261,257.313 308.5,256.5 Z"/></g>
<g><path style="opacity:1" fill="#808586" d="M 202.5,255.5 C 202.5,255.833 202.5,256.167 202.5,256.5C 201.833,257.167 201.167,257.833 200.5,258.5C 198.819,260.008 196.819,261.008 194.5,261.5C 190.454,261.293 186.454,261.293 182.5,261.5C 189.357,260.119 196.023,258.119 202.5,255.5 Z"/></g>
<g><path style="opacity:1" fill="#131617" d="M 188.5,254.5 C 187,256.179 185.167,257.512 183,258.5C 182.517,259.448 182.351,260.448 182.5,261.5C 178.89,262.516 175.223,263.016 171.5,263C 176.363,258.568 182.03,255.735 188.5,254.5 Z"/></g>
<g><path style="opacity:1" fill="#e3e4e4" d="M 200.5,258.5 C 201.167,257.833 201.833,257.167 202.5,256.5C 205.936,255.034 209.436,253.7 213,252.5C 214.404,252.509 215.57,253.009 216.5,254C 211.382,256.114 206.049,257.614 200.5,258.5 Z"/></g>
<g><path style="opacity:1" fill="#f2f3f2" d="M 202.5,255.5 C 196.023,258.119 189.357,260.119 182.5,261.5C 182.351,260.448 182.517,259.448 183,258.5C 185.167,257.512 187,256.179 188.5,254.5C 190.553,254.598 192.22,253.931 193.5,252.5C 195.937,252.244 198.271,251.577 200.5,250.5C 201.322,252.139 201.989,253.805 202.5,255.5 Z"/></g>
<g><path style="opacity:1" fill="#dddedd" d="M 308.5,256.5 C 310.261,257.313 311.928,258.313 313.5,259.5C 307.409,257.86 301.242,256.526 295,255.5C 293.238,253.535 293.904,252.535 297,252.5C 300.789,253.979 304.623,255.312 308.5,256.5 Z"/></g>
<g><path style="opacity:1" fill="#181a1b" d="M 193.5,252.5 C 192.22,253.931 190.553,254.598 188.5,254.5C 189.78,253.069 191.447,252.402 193.5,252.5 Z"/></g>
<g><path style="opacity:1" fill="#f5f6f5" d="M 326.5,258.5 C 325.726,259.147 324.726,259.48 323.5,259.5C 318.453,258.624 313.453,257.624 308.5,256.5C 308.5,254.833 308.5,253.167 308.5,251.5C 311.607,251.351 314.607,251.851 317.5,253C 321.2,253.843 324.2,255.676 326.5,258.5 Z"/></g>
<g><path style="opacity:1" fill="#0f1315" d="M 344.5,246.5 C 346.5,246.5 348.5,246.5 350.5,246.5C 350.5,250.167 350.5,253.833 350.5,257.5C 339.235,256.068 328.235,253.568 317.5,250C 326.355,248.44 335.355,247.274 344.5,246.5 Z"/></g>
<g><path style="opacity:1" fill="#737474" d="M 304.5,243.5 C 307.053,244.805 309.72,245.805 312.5,246.5C 311.167,247.167 309.833,247.833 308.5,248.5C 307.833,248.5 307.5,248.167 307.5,247.5C 306.211,246.363 305.211,245.03 304.5,243.5 Z"/></g>
<g><path style="opacity:1" fill="#303438" d="M 352.5,241.5 C 355.972,242.561 356.139,243.894 353,245.5C 352.501,249.152 352.335,252.818 352.5,256.5C 351.833,256.833 351.167,257.167 350.5,257.5C 350.5,253.833 350.5,250.167 350.5,246.5C 348.5,246.5 346.5,246.5 344.5,246.5C 346.369,245.835 348.369,245.169 350.5,244.5C 349.5,244.167 348.5,243.833 347.5,243.5C 343.535,244.274 339.535,244.607 335.5,244.5C 341.059,243.425 346.726,242.425 352.5,241.5 Z"/></g>
<g><path style="opacity:1" fill="#848585" d="M 335.5,244.5 C 328.07,246.197 320.403,246.864 312.5,246.5C 318.63,245.253 324.963,244.586 331.5,244.5C 332.964,243.595 334.298,243.595 335.5,244.5 Z"/></g>
<g><path style="opacity:1" fill="#cecfd1" d="M 304.5,243.5 C 305.211,245.03 306.211,246.363 307.5,247.5C 305.076,247.808 302.743,247.474 300.5,246.5C 301.467,245.016 302.8,244.016 304.5,243.5 Z"/></g>
<g><path style="opacity:1" fill="#d6d8d8" d="M 354.5,222.5 C 354.328,223.492 354.662,224.158 355.5,224.5C 353.704,230.02 352.704,235.687 352.5,241.5C 346.726,242.425 341.059,243.425 335.5,244.5C 334.298,243.595 332.964,243.595 331.5,244.5C 329.833,243.833 328.167,243.167 326.5,242.5C 332.189,242.468 337.855,242.134 343.5,241.5C 345.764,240.781 348.097,240.448 350.5,240.5C 350.826,234.156 352.159,228.156 354.5,222.5 Z"/></g>
<g><path style="opacity:1" fill="#626363" d="M 253.5,229.5 C 253.833,229.5 254.167,229.5 254.5,229.5C 255.167,229.5 255.833,229.5 256.5,229.5C 256.5,230.5 256.5,231.5 256.5,232.5C 255.5,232.5 254.5,232.5 253.5,232.5C 253.5,231.5 253.5,230.5 253.5,229.5 Z"/></g>
<g><path style="opacity:1" fill="#484e50" d="M 187.5,289.5 C 176.986,289.828 166.653,289.494 156.5,288.5C 158.488,288.173 160.488,287.84 162.5,287.5C 170.991,288.078 179.324,288.744 187.5,289.5 Z"/></g>
<g><path style="opacity:1" fill="#4e5459" d="M 354.5,287.5 C 343.967,289.309 333.301,289.976 322.5,289.5C 332.328,288.281 342.328,287.281 352.5,286.5C 351.48,284.568 351.313,282.568 352,280.5C 352.991,282.808 353.824,285.141 354.5,287.5 Z"/></g>
<g><path style="opacity:1" fill="#75787a" d="M 189.5,289.5 C 191.806,289.993 194.139,290.326 196.5,290.5C 191.405,292.106 186.405,292.439 181.5,291.5C 183.353,290.24 185.186,290.24 187,291.5C 187.995,290.934 188.828,290.267 189.5,289.5 Z"/></g>
<g><path style="opacity:1" fill="#4c4e4f" d="M 296.5,290.5 C 298.494,289.85 300.494,289.517 302.5,289.5C 306.065,290.787 309.732,290.787 313.5,289.5C 319.653,290.587 325.986,291.42 332.5,292C 321.515,291.834 310.515,291.668 299.5,291.5C 298.791,290.596 297.791,290.263 296.5,290.5 Z"/></g>
<g><path style="opacity:1" fill="#7b7e7d" d="M 156.5,291.5 C 156.369,292.239 156.536,292.906 157,293.5C 161.066,292.536 165.233,292.203 169.5,292.5C 165.005,293.422 160.338,294.089 155.5,294.5C 151.581,293.015 151.914,292.015 156.5,291.5 Z"/></g>
<g><path style="opacity:1" fill="#eaeaeb" d="M 354.5,287.5 C 354.489,289.017 353.823,290.184 352.5,291C 353.793,291.49 355.127,291.657 356.5,291.5C 356.631,292.239 356.464,292.906 356,293.5C 354.817,292.269 353.651,292.269 352.5,293.5C 354.743,294.474 357.076,294.808 359.5,294.5C 361.539,295.911 362.539,297.911 362.5,300.5C 336.512,298.917 310.512,297.584 284.5,296.5C 284.5,295.5 284.5,294.5 284.5,293.5C 286.5,293.167 288.5,292.833 290.5,292.5C 309.332,294.32 328.332,295.987 347.5,297.5C 354.118,297.32 354.118,296.82 347.5,296C 330.328,294.65 313.328,293.483 296.5,292.5C 297.209,291.596 298.209,291.263 299.5,291.5C 310.515,291.668 321.515,291.834 332.5,292C 325.986,291.42 319.653,290.587 313.5,289.5C 316.5,289.5 319.5,289.5 322.5,289.5C 333.301,289.976 343.967,289.309 354.5,287.5 Z"/></g>
<g><path style="opacity:1" fill="#747778" d="M 356.5,291.5 C 358.144,291.81 359.144,292.81 359.5,294.5C 357.076,294.808 354.743,294.474 352.5,293.5C 353.651,292.269 354.817,292.269 356,293.5C 356.464,292.906 356.631,292.239 356.5,291.5 Z"/></g>
<g><path style="opacity:1" fill="#b4b5b5" d="M 148.5,298.5 C 148.932,297.29 149.599,296.29 150.5,295.5C 152.304,296.162 154.304,296.495 156.5,296.5C 170.373,295.537 184.207,294.203 198,292.5C 199.404,292.509 200.57,293.009 201.5,294C 183.821,295.501 166.155,297.001 148.5,298.5 Z"/></g>
<g><path style="opacity:1" fill="#e9eae9" d="M 156.5,288.5 C 166.653,289.494 176.986,289.828 187.5,289.5C 188.167,289.5 188.833,289.5 189.5,289.5C 188.828,290.267 187.995,290.934 187,291.5C 185.186,290.24 183.353,290.24 181.5,291.5C 186.405,292.439 191.405,292.106 196.5,290.5C 205.808,291.378 215.141,292.045 224.5,292.5C 224.67,293.822 224.337,294.989 223.5,296C 199.488,297.345 175.488,298.845 151.5,300.5C 150.167,300.167 148.833,299.833 147.5,299.5C 147.624,298.893 147.957,298.56 148.5,298.5C 166.155,297.001 183.821,295.501 201.5,294C 200.57,293.009 199.404,292.509 198,292.5C 184.207,294.203 170.373,295.537 156.5,296.5C 154.304,296.495 152.304,296.162 150.5,295.5C 151.919,294.549 153.585,294.216 155.5,294.5C 160.338,294.089 165.005,293.422 169.5,292.5C 165.233,292.203 161.066,292.536 157,293.5C 156.536,292.906 156.369,292.239 156.5,291.5C 155.341,286.882 155.341,285.882 156.5,288.5 Z"/></g>
<g><path style="opacity:1" fill="#a0a2a3" d="M 169.5,292.5 C 172.976,291.357 176.642,291.19 180.5,292C 176.796,293.321 173.129,293.487 169.5,292.5 Z"/></g>
<g><path style="opacity:1" fill="#b2b2b2" d="M 290.5,292.5 C 292.5,292.5 294.5,292.5 296.5,292.5C 313.328,293.483 330.328,294.65 347.5,296C 354.118,296.82 354.118,297.32 347.5,297.5C 328.332,295.987 309.332,294.32 290.5,292.5 Z"/></g>
<g><path style="opacity:1" fill="#202c2f" d="M 430.5,289.5 C 428.443,298.339 425.776,307.005 422.5,315.5C 422.167,315.5 421.833,315.5 421.5,315.5C 418.828,311.313 416.328,306.98 414,302.5C 413.333,301.167 413.333,299.833 414,298.5C 419.181,294.796 424.681,291.796 430.5,289.5 Z"/></g>
<g><path style="opacity:1" fill="#ac8e8a" d="M 57.5,308.5 C 57.8966,307.475 58.5632,307.308 59.5,308C 58.9056,308.464 58.2389,308.631 57.5,308.5 Z"/></g>
<g><path style="opacity:0.129" fill="#004800" d="M 58.5,310.5 C 58.8966,309.475 59.5632,309.308 60.5,310C 59.9056,310.464 59.2389,310.631 58.5,310.5 Z"/></g>
<g><path style="opacity:1" fill="#0e1316" d="M 243.5,306.5 C 250.841,306.334 258.174,306.5 265.5,307C 266.444,309.719 266.777,312.552 266.5,315.5C 258.5,315.5 250.5,315.5 242.5,315.5C 242.368,312.43 242.701,309.43 243.5,306.5 Z"/></g>
<g><path style="opacity:1" fill="#9b9d9b" d="M 57.5,294.5 C 58.5862,294.62 59.2528,295.287 59.5,296.5C 61.9616,303.501 64.295,310.501 66.5,317.5C 65.2502,317.423 64.4169,316.756 64,315.5C 62.8551,312.568 62.0218,309.568 61.5,306.5C 60.5,306.5 59.5,306.5 58.5,306.5C 58.67,305.178 58.3366,304.011 57.5,303C 58.3567,302.311 59.0233,301.478 59.5,300.5C 58.8283,298.47 58.1616,296.47 57.5,294.5 Z"/></g>
<g><path style="opacity:1" fill="#3f5154" d="M 224.5,327.5 C 203.167,327.5 181.833,327.5 160.5,327.5C 162.82,322.86 165.153,318.193 167.5,313.5C 168.333,313.167 169.167,312.833 170,312.5C 181.149,313.657 192.316,314.657 203.5,315.5C 205.132,318.814 206.799,322.147 208.5,325.5C 213.985,326.167 219.319,326.833 224.5,327.5 Z"/></g>
<g><path style="opacity:1" fill="#415155" d="M 351.5,327.5 C 325.5,327.5 299.5,327.5 273.5,327.5C 281.676,326.833 290.01,326.167 298.5,325.5C 300.626,322.081 302.626,318.581 304.5,315C 318.538,314.614 332.538,313.781 346.5,312.5C 347.965,317.562 349.632,322.562 351.5,327.5 Z"/></g>
<g><path style="opacity:1" fill="#6c6f6f" d="M 93.5,323.5 C 98.1667,323.5 102.833,323.5 107.5,323.5C 108.167,323.5 108.5,323.833 108.5,324.5C 108.5,325.167 108.167,325.5 107.5,325.5C 102.833,324.833 98.1667,324.167 93.5,323.5 Z"/></g>
<g><path style="opacity:1" fill="#cbcbcb" d="M 363.5,324.5 C 375.655,325.495 387.989,325.829 400.5,325.5C 387.994,326.825 375.327,326.825 362.5,325.5C 362.624,324.893 362.957,324.56 363.5,324.5 Z"/></g>
<g><path style="opacity:1" fill="#a1a1a0" d="M 404.5,322.5 C 408.97,323.486 413.637,323.819 418.5,323.5C 416.78,329.338 414.114,334.671 410.5,339.5C 408.092,335.687 405.925,331.687 404,327.5C 403.292,326.619 402.458,325.953 401.5,325.5C 402.5,324.5 403.5,323.5 404.5,322.5 Z"/></g>
<g><path style="opacity:1" fill="#edefef" d="M 160.5,327.5 C 181.833,327.5 203.167,327.5 224.5,327.5C 225.404,328.209 225.737,329.209 225.5,330.5C 220.5,330.5 215.5,330.5 210.5,330.5C 193.325,330.83 176.325,330.497 159.5,329.5C 159.833,328.833 160.167,328.167 160.5,327.5 Z"/></g>
<g><path style="opacity:1" fill="#fbfcfc" d="M 273.5,327.5 C 299.5,327.5 325.5,327.5 351.5,327.5C 351.5,327.833 351.5,328.167 351.5,328.5C 333.341,329.497 315.008,329.83 296.5,329.5C 288.833,329.5 281.167,329.5 273.5,329.5C 273.5,328.833 273.5,328.167 273.5,327.5 Z"/></g>
<g><path style="opacity:1" fill="#4b595d" d="M 90.5,319.5 C 91.3446,320.671 92.0113,322.005 92.5,323.5C 93.7019,327.578 95.2019,331.578 97,335.5C 97.6972,337.584 98.8639,339.251 100.5,340.5C 99.6314,342.717 99.298,345.05 99.5,347.5C 94.6648,341.172 90.8315,334.172 88,326.5C 87.3333,324.833 87.3333,323.167 88,321.5C 88.6667,320.167 89.3333,320.167 90,321.5C 90.4643,320.906 90.631,320.239 90.5,319.5 Z"/></g>
<g><path style="opacity:1" fill="#cbd5d5" d="M 351.5,328.5 C 352.167,328.5 352.5,328.833 352.5,329.5C 333.833,330.833 315.167,330.833 296.5,329.5C 315.008,329.83 333.341,329.497 351.5,328.5 Z"/></g>
<g><path style="opacity:1" fill="#405154" d="M 159.5,329.5 C 176.325,330.497 193.325,330.83 210.5,330.5C 218.801,346.431 227.634,362.098 237,377.5C 237.75,378.126 238.584,378.626 239.5,379C 244.155,379.499 248.821,379.666 253.5,379.5C 252.866,371.097 253.533,363.097 255.5,355.5C 254.185,370.437 254.185,385.437 255.5,400.5C 256.497,393.532 256.83,386.532 256.5,379.5C 256.833,379.5 257.167,379.5 257.5,379.5C 257.457,382.91 257.957,386.243 259,389.5C 261.222,390.433 263.056,392.433 264.5,395.5C 267.029,396.706 269.362,397.373 271.5,397.5C 270.15,398.95 268.484,399.617 266.5,399.5C 266.462,402.621 265.795,405.621 264.5,408.5C 264.833,409.5 265.167,410.5 265.5,411.5C 268.963,410.566 272.63,410.566 276.5,411.5C 278.693,408.926 280.527,409.259 282,412.5C 282.309,413.766 282.809,414.933 283.5,416C 280.118,416.176 276.785,416.676 273.5,417.5C 274.949,418.172 276.282,418.839 277.5,419.5C 239.247,424.226 203.247,417.56 169.5,399.5C 155.09,391.76 142.09,382.093 130.5,370.5C 124.415,364.753 119.082,358.419 114.5,351.5C 124.454,352.683 134.454,353.183 144.5,353C 150.148,345.526 155.148,337.692 159.5,329.5 Z"/></g>
<g><path style="opacity:1" fill="#a0a2a2" d="M 92.5,323.5 C 92.8333,323.5 93.1667,323.5 93.5,323.5C 98.1667,324.167 102.833,324.833 107.5,325.5C 105.438,330.625 103.104,335.625 100.5,340.5C 98.8639,339.251 97.6972,337.584 97,335.5C 95.2019,331.578 93.7019,327.578 92.5,323.5 Z"/></g>
<g><path style="opacity:1" fill="#415155" d="M 273.5,329.5 C 281.167,329.5 288.833,329.5 296.5,329.5C 315.167,330.833 333.833,330.833 352.5,329.5C 354.89,332.566 356.89,335.9 358.5,339.5C 341.574,353.587 325.074,368.254 309,383.5C 308.517,384.448 308.351,385.448 308.5,386.5C 306.245,383.742 304.412,384.076 303,387.5C 302.667,387.167 302.333,386.833 302,386.5C 301.581,390.852 300.914,391.185 300,387.5C 298.731,388.905 298.231,390.571 298.5,392.5C 297.178,392.33 296.011,392.663 295,393.5C 293.781,388.491 292.947,388.824 292.5,394.5C 290.099,395.049 287.765,395.882 285.5,397C 285.833,397.333 286.167,397.667 286.5,398C 284.359,399.308 282.359,400.808 280.5,402.5C 281.5,404.833 283.167,406.5 285.5,407.5C 289.981,407.936 294.314,408.436 298.5,409C 297.542,410.147 297.875,411.147 299.5,412C 295.945,412.291 292.945,413.625 290.5,416C 291.094,416.464 291.761,416.631 292.5,416.5C 287.727,418.022 282.727,419.022 277.5,419.5C 276.282,418.839 274.949,418.172 273.5,417.5C 276.785,416.676 280.118,416.176 283.5,416C 282.809,414.933 282.309,413.766 282,412.5C 280.527,409.259 278.693,408.926 276.5,411.5C 272.63,410.566 268.963,410.566 265.5,411.5C 265.167,410.5 264.833,409.5 264.5,408.5C 265.795,405.621 266.462,402.621 266.5,399.5C 268.484,399.617 270.15,398.95 271.5,397.5C 269.362,397.373 267.029,396.706 264.5,395.5C 263.056,392.433 261.222,390.433 259,389.5C 257.957,386.243 257.457,382.91 257.5,379.5C 259.857,379.663 262.19,379.497 264.5,379C 269.963,371.246 274.797,363.079 279,354.5C 280.512,353.743 281.846,352.743 283,351.5C 287.167,344.667 291.333,337.833 295.5,331C 287.989,330.829 280.655,330.329 273.5,329.5 Z"/></g>
<g><path style="opacity:1" fill="#a29d9b" d="M 76.5,342.5 C 78.9118,342.694 79.9118,344.027 79.5,346.5C 78.5266,346.013 77.5266,345.513 76.5,345C 77.5981,344.23 77.5981,343.397 76.5,342.5 Z"/></g>
<g><path style="opacity:0.129" fill="#474800" d="M 427.5,354.5 C 428.833,355.167 428.833,355.167 427.5,354.5 Z"/></g>
<g><path style="opacity:1" fill="#aeadab" d="M 102.5,350.5 C 106.4,351.43 110.4,351.763 114.5,351.5C 119.082,358.419 124.415,364.753 130.5,370.5C 130.062,370.435 129.728,370.601 129.5,371C 139.5,381.183 150.167,390.35 161.5,398.5C 159.304,399.854 157.804,401.854 157,404.5C 150.717,400.28 144.55,395.947 138.5,391.5C 124.586,379.42 112.252,365.92 101.5,351C 101.728,350.601 102.062,350.435 102.5,350.5 Z"/></g>
<g><path style="opacity:0.129" fill="#474800" d="M 425.5,358.5 C 425.833,358.5 426.167,358.5 426.5,358.5C 426.315,359.17 425.981,359.17 425.5,358.5 Z"/></g>
<g><path style="opacity:1" fill="#ac8e8a" d="M 86.5,363.5 C 86.8966,362.475 87.5632,362.308 88.5,363C 87.9056,363.464 87.2389,363.631 86.5,363.5 Z"/></g>
<g><path style="opacity:1" fill="#e1e7e8" d="M 358.5,339.5 C 356.107,343.402 353.107,346.902 349.5,350C 335.962,362.375 322.296,374.541 308.5,386.5C 308.351,385.448 308.517,384.448 309,383.5C 325.074,368.254 341.574,353.587 358.5,339.5 Z"/></g>
<g><path style="opacity:1" fill="#3f4f53" d="M 358.5,339.5 C 361.353,344.021 364.353,348.521 367.5,353C 376.853,353.099 386.186,352.599 395.5,351.5C 392.915,356.091 389.915,360.424 386.5,364.5C 379.019,371.142 371.352,377.642 363.5,384C 355.991,388.696 348.657,393.53 341.5,398.5C 326.071,406.866 309.738,412.866 292.5,416.5C 291.761,416.631 291.094,416.464 290.5,416C 292.945,413.625 295.945,412.291 299.5,412C 297.875,411.147 297.542,410.147 298.5,409C 294.314,408.436 289.981,407.936 285.5,407.5C 283.167,406.5 281.5,404.833 280.5,402.5C 282.359,400.808 284.359,399.308 286.5,398C 286.167,397.667 285.833,397.333 285.5,397C 287.765,395.882 290.099,395.049 292.5,394.5C 292.947,388.824 293.781,388.491 295,393.5C 296.011,392.663 297.178,392.33 298.5,392.5C 298.231,390.571 298.731,388.905 300,387.5C 300.914,391.185 301.581,390.852 302,386.5C 302.333,386.833 302.667,387.167 303,387.5C 304.412,384.076 306.245,383.742 308.5,386.5C 322.296,374.541 335.962,362.375 349.5,350C 353.107,346.902 356.107,343.402 358.5,339.5 Z"/></g>
<g><path style="opacity:0.129" fill="#470000" d="M 93.5,368.5 C 94.8333,369.167 94.8333,369.167 93.5,368.5 Z"/></g>
<g><path style="opacity:0.129" fill="#496041" d="M 96.5,367.5 C 96.5,368.167 96.8333,368.5 97.5,368.5C 97.5,369.167 97.5,369.833 97.5,370.5C 95.6182,369.779 95.2848,368.779 96.5,367.5 Z"/></g>
<g><path style="opacity:1" fill="#dedfdf" d="M 143.5,408.5 C 145.745,409.292 146.078,410.625 144.5,412.5C 140.459,411.773 137.126,409.439 134.5,405.5C 132.761,402.757 130.427,400.757 127.5,399.5C 126.542,399.047 125.708,398.381 125,397.5C 124.667,397.833 124.333,398.167 124,398.5C 116.921,390.487 109.921,382.487 103,374.5C 101.853,373.542 100.853,373.875 100,375.5C 99.7679,374.263 99.2679,373.263 98.5,372.5C 98.1667,371.833 97.8333,371.167 97.5,370.5C 98.8333,369.833 98.8333,369.167 97.5,368.5C 96.8333,368.5 96.5,368.167 96.5,367.5C 95.9924,365.767 95.159,365.434 94,366.5C 93.2904,365.027 92.1238,364.36 90.5,364.5C 92.0207,362.471 94.0207,361.638 96.5,362C 110.441,379.292 126.108,394.792 143.5,408.5 Z"/></g>
<g><path style="opacity:1" fill="#e3e5e7" d="M 386.5,364.5 C 386.291,365.922 385.791,367.255 385,368.5C 372.736,381.272 358.903,391.938 343.5,400.5C 342.478,400.145 341.811,399.478 341.5,398.5C 348.657,393.53 355.991,388.696 363.5,384C 371.352,377.642 379.019,371.142 386.5,364.5 Z"/></g>
<g><path style="opacity:0.129" fill="#470000" d="M 98.5,372.5 C 97.8333,373.167 97.8333,373.167 98.5,372.5 Z"/></g>
<g><path style="opacity:1" fill="#dbdedf" d="M 130.5,370.5 C 142.09,382.093 155.09,391.76 169.5,399.5C 169.265,400.097 168.765,400.43 168,400.5C 166.594,399.586 165.094,398.92 163.5,398.5C 162.833,398.5 162.167,398.5 161.5,398.5C 150.167,390.35 139.5,381.183 129.5,371C 129.728,370.601 130.062,370.435 130.5,370.5 Z"/></g>
<g><path style="opacity:1" fill="#929494" d="M 399.5,384.5 C 392.449,393.432 384.115,400.099 374.5,404.5C 381.937,398.237 389.27,391.737 396.5,385C 397.448,384.517 398.448,384.351 399.5,384.5 Z"/></g>
<g><path style="opacity:1" fill="#cdd0d0" d="M 255.5,355.5 C 256.492,363.316 256.826,371.316 256.5,379.5C 256.83,386.532 256.497,393.532 255.5,400.5C 254.185,385.437 254.185,370.437 255.5,355.5 Z"/></g>
<g><path style="opacity:1" fill="#9ca19a" d="M 127.5,399.5 C 130.427,400.757 132.761,402.757 134.5,405.5C 134.103,406.525 133.437,406.692 132.5,406C 131.001,403.672 129.334,401.505 127.5,399.5 Z"/></g>
<g><path style="opacity:1" fill="#94969a" d="M 145.5,413.5 C 145.897,412.475 146.563,412.308 147.5,413C 152.256,415.699 156.589,418.866 160.5,422.5C 155.03,420.266 150.03,417.266 145.5,413.5 Z"/></g>
<g><path style="opacity:1" fill="#afaeac" d="M 407.5,350.5 C 407.938,350.435 408.272,350.601 408.5,351C 392.814,375.361 372.147,394.028 346.5,407C 349.779,410.791 353.446,413.957 357.5,416.5C 355.729,418.935 353.396,420.602 350.5,421.5C 349.113,416.395 346.446,412.062 342.5,408.5C 300.603,429.904 256.603,435.404 210.5,425C 194.568,421.032 179.568,414.865 165.5,406.5C 164.74,403.813 164.073,401.147 163.5,398.5C 165.094,398.92 166.594,399.586 168,400.5C 168.765,400.43 169.265,400.097 169.5,399.5C 203.247,417.56 239.247,424.226 277.5,419.5C 282.727,419.022 287.727,418.022 292.5,416.5C 309.738,412.866 326.071,406.866 341.5,398.5C 341.811,399.478 342.478,400.145 343.5,400.5C 358.903,391.938 372.736,381.272 385,368.5C 385.791,367.255 386.291,365.922 386.5,364.5C 389.915,360.424 392.915,356.091 395.5,351.5C 399.481,350.979 403.481,350.646 407.5,350.5 Z"/></g>
<g><path style="opacity:1" fill="#a1a2a2" d="M 162.5,423.5 C 167.346,424.919 172.013,426.919 176.5,429.5C 176.44,430.043 176.107,430.376 175.5,430.5C 170.946,428.392 166.612,426.059 162.5,423.5 Z"/></g>
<g><path style="opacity:1" fill="#aaaaac" d="M 345.5,424.5 C 343.11,426.784 340.276,428.45 337,429.5C 336.601,429.272 336.435,428.938 336.5,428.5C 339.314,426.93 342.314,425.597 345.5,424.5 Z"/></g>
<g><path style="opacity:1" fill="#38474a" d="M 138.5,391.5 C 144.55,395.947 150.717,400.28 157,404.5C 157.804,401.854 159.304,399.854 161.5,398.5C 162.167,398.5 162.833,398.5 163.5,398.5C 164.073,401.147 164.74,403.813 165.5,406.5C 179.568,414.865 194.568,421.032 210.5,425C 256.603,435.404 300.603,429.904 342.5,408.5C 346.446,412.062 349.113,416.395 350.5,421.5C 348.598,422.906 346.931,423.906 345.5,424.5C 342.314,425.597 339.314,426.93 336.5,428.5C 335.778,428.918 335.278,429.584 335,430.5C 334.667,430.167 334.333,429.833 334,429.5C 330.024,432.338 325.858,434.504 321.5,436C 317.393,436.661 313.393,437.495 309.5,438.5C 306.933,438.721 304.599,439.388 302.5,440.5C 301.778,440.918 301.278,441.584 301,442.5C 299.732,442.384 298.398,442.051 297,441.5C 296,445.167 294.333,445.5 292,442.5C 290.33,444.698 288.33,445.032 286,443.5C 284.331,445.721 282.331,446.055 280,444.5C 278.216,445.309 276.383,445.976 274.5,446.5C 262.415,446.489 250.415,446.489 238.5,446.5C 233.456,445.067 228.456,444.067 223.5,443.5C 222.558,443.608 221.725,443.941 221,444.5C 220.292,443.619 219.458,442.953 218.5,442.5C 214.684,441.518 210.684,440.851 206.5,440.5C 199.947,439.413 193.28,437.58 186.5,435C 185.333,434.5 184.5,433.667 184,432.5C 182.002,433.271 180.335,432.605 179,430.5C 178.667,430.833 178.333,431.167 178,431.5C 177.722,430.584 177.222,429.918 176.5,429.5C 172.013,426.919 167.346,424.919 162.5,423.5C 161.508,423.672 160.842,423.338 160.5,422.5C 156.589,418.866 152.256,415.699 147.5,413C 146.563,412.308 145.897,412.475 145.5,413.5C 144.833,413.5 144.5,413.167 144.5,412.5C 146.078,410.625 145.745,409.292 143.5,408.5C 143.918,407.778 144.584,407.278 145.5,407C 143.986,405.561 143.653,404.061 144.5,402.5C 140.991,399.623 138.991,395.957 138.5,391.5 Z"/></g>
<g><path style="opacity:1" fill="#a2a4a4" d="M 309.5,438.5 C 307.582,439.868 305.415,440.868 303,441.5C 302.601,441.272 302.435,440.938 302.5,440.5C 304.599,439.388 306.933,438.721 309.5,438.5 Z"/></g>
<g><path style="opacity:1" fill="#9c9d9d" d="M 206.5,440.5 C 210.684,440.851 214.684,441.518 218.5,442.5C 217.85,442.804 217.183,443.137 216.5,443.5C 212.929,442.919 209.596,441.919 206.5,440.5 Z"/></g>
<g><path style="opacity:0.129" fill="#000000" d="M 209.5,444.5 C 209.897,443.475 210.563,443.308 211.5,444C 210.906,444.464 210.239,444.631 209.5,444.5 Z"/></g>
<g><path style="opacity:0.129" fill="#000000" d="M 216.5,444.5 C 217.833,445.167 217.833,445.167 216.5,444.5 Z"/></g>
<g><path style="opacity:1" fill="#af9b9a" d="M 273.5,448.5 C 274.601,447.402 275.934,447.235 277.5,448C 276.207,448.49 274.873,448.657 273.5,448.5 Z"/></g>
</svg>
